<?xml version="1.0" encoding="UTF-8" standalone="no"?>
<svg
   xmlns:dc="http://purl.org/dc/elements/1.1/"
   xmlns:cc="http://creativecommons.org/ns#"
   xmlns:rdf="http://www.w3.org/1999/02/22-rdf-syntax-ns#"
   xmlns:svg="http://www.w3.org/2000/svg"
   xmlns="http://www.w3.org/2000/svg"
   xmlns:sodipodi="http://sodipodi.sourceforge.net/DTD/sodipodi-0.dtd"
   xmlns:inkscape="http://www.inkscape.org/namespaces/inkscape"
   version="1.1"
   id="Calque_1"
   x="0px"
   y="0px"
   viewBox="0 0 411.76818 72.922432"
   xml:space="preserve"
   sodipodi:docname="UPMC_Sorbonne_Universites_Logo.svg"
   inkscape:version="1.0.1 (3bc2e813f5, 2020-09-07)"
   width="411.76819"
   height="72.922432"><g
   id="g952"
   transform="matrix(1.3333333,0,0,-1.3333333,-427.25325,-67.879459)" /><g
   id="g1016"
   transform="matrix(0.58645129,0,0,-0.58645129,-14.817394,89.86378)"
   style="stroke-width:2.27356"><g
     clip-path="url(#clipPath914)"
     id="g1014"
     style="stroke-width:2.27356"><path
       d="m 325.5957,148.0753 c -0.678,0.104 -1.361,0.122 -2.062,0.151 -0.516,0.017 -1.256,0.214 -1.969,0.119 -0.125,-0.019 -0.262,-0.105 -0.396,-0.119 -0.639,-0.073 -1.288,0.01 -1.91,-0.09 -0.239,-0.04 -0.466,-0.165 -0.7,-0.219 -0.217,-0.042 -0.452,-0.017 -0.664,-0.056 -0.219,-0.042 -0.397,-0.156 -0.611,-0.212 -0.187,-0.049 -0.374,-0.039 -0.543,-0.092 -0.131,-0.044 -0.231,-0.135 -0.366,-0.183 -0.138,-0.051 -0.308,-0.044 -0.452,-0.091 -0.122,-0.043 -0.222,-0.14 -0.335,-0.182 -0.117,-0.044 -0.252,-0.022 -0.365,-0.061 -0.322,-0.109 -0.67,-0.306 -0.971,-0.453 -0.212,-0.109 -0.476,-0.117 -0.608,-0.335 -0.122,0.022 -0.152,-0.049 -0.27,-0.03 -0.943,-0.601 -1.958,-1.135 -2.792,-1.85 -0.896,-0.652 -1.675,-1.417 -2.484,-2.157 -0.052,-0.099 -0.105,-0.2 -0.156,-0.3 -1.401,-1.348 -2.44,-3.057 -3.485,-4.762 -0.23,-0.587 -0.504,-1.135 -0.817,-1.639 -0.044,-0.253 -0.144,-0.445 -0.274,-0.606 0.013,-0.309 -0.245,-0.499 -0.334,-0.761 -0.036,-0.086 0,-0.208 -0.032,-0.3 -0.043,-0.13 -0.164,-0.239 -0.213,-0.365 -0.142,-0.387 -0.212,-0.787 -0.33,-1.183 -0.052,-0.161 -0.17,-0.3 -0.217,-0.456 -0.118,-0.423 -0.236,-0.84 -0.331,-1.271 -0.061,-0.283 -0.182,-0.544 -0.244,-0.822 -0.03,-0.156 0,-0.322 -0.03,-0.483 -0.053,-0.304 -0.191,-0.587 -0.243,-0.879 -0.03,-0.204 -0.005,-0.399 -0.026,-0.608 -0.043,-0.375 -0.188,-0.74 -0.245,-1.122 -0.099,-0.658 -0.013,-1.362 -0.091,-2.097 -0.03,-0.27 -0.1,-0.422 -0.09,-0.753 0.064,-4.754 -0.1,-10.291 -0.031,-14.653 -0.356,0.026 -0.649,0.152 -0.97,0.243 -0.161,0.044 -0.287,0.157 -0.457,0.218 -0.113,0.035 -0.251,0.022 -0.365,0.057 -0.118,0.039 -0.232,0.134 -0.361,0.178 -0.135,0.056 -0.301,0.048 -0.427,0.095 -0.099,0.036 -0.165,0.136 -0.269,0.179 -0.126,0.056 -0.275,0.044 -0.397,0.091 -0.117,0.048 -0.195,0.17 -0.303,0.217 -0.241,0.087 -0.489,0.044 -0.606,0.27 -0.316,0.013 -0.508,0.139 -0.669,0.305 -0.122,-0.009 -0.171,0.052 -0.304,0.03 -0.862,0.492 -1.775,0.962 -2.666,1.423 -0.405,0.212 -0.806,0.456 -1.154,0.73 -0.461,0.161 -0.743,0.492 -1.213,0.635 -0.418,0.405 -1.013,0.631 -1.457,1.001 -1.527,0.913 -2.896,1.979 -4.398,2.914 -0.957,0.674 -1.904,1.352 -2.943,1.939 -0.936,0.692 -2.045,1.214 -3.032,1.85 -0.418,0.13 -0.779,0.316 -1.093,0.547 -0.321,-0.026 -0.495,0.213 -0.73,0.31 -0.083,0.029 -0.2,0.004 -0.27,0.025 -0.125,0.043 -0.191,0.17 -0.305,0.209 -0.134,0.058 -0.313,0.043 -0.455,0.092 -0.119,0.043 -0.219,0.147 -0.331,0.182 -0.173,0.056 -0.392,0.03 -0.579,0.091 -0.118,0.039 -0.213,0.153 -0.334,0.183 -0.297,0.087 -0.71,0.061 -1.093,0.153 -0.63,0.151 -1.987,0.287 -2.818,0.117 -0.152,-0.027 -0.3,-0.135 -0.453,-0.178 -0.209,-0.057 -0.43,-0.036 -0.608,-0.092 -0.109,-0.03 -0.232,-0.13 -0.365,-0.183 -0.384,-0.147 -0.824,-0.283 -1.184,-0.487 -0.791,-0.444 -1.587,-0.979 -2.239,-1.635 -0.205,-0.201 -0.535,-0.488 -0.549,-0.605 -0.031,-0.239 0.365,-0.548 0.574,-0.76 0.905,-0.923 1.862,-1.697 2.792,-2.546 0.118,-0.112 0.209,-0.23 0.335,-0.334 0.566,-0.487 1.201,-1.04 1.758,-1.548 0.943,-0.867 1.932,-1.649 2.914,-2.423 0.982,-0.788 1.936,-1.61 3,-2.31 0.984,-0.796 2.028,-1.527 3.124,-2.209 0.271,-0.322 0.757,-0.418 1.001,-0.762 0.578,-0.243 1.061,-0.621 1.578,-0.944 0.518,-0.312 1.053,-0.612 1.545,-0.97 0.699,-0.33 1.352,-0.708 1.975,-1.117 0.594,-0.236 1.122,-0.54 1.635,-0.848 0.591,-0.235 1.122,-0.522 1.64,-0.822 0.443,-0.053 0.764,-0.384 1.151,-0.548 0.11,-0.044 0.232,-0.014 0.335,-0.057 0.127,-0.057 0.206,-0.192 0.332,-0.243 0.307,-0.136 0.653,-0.201 0.974,-0.335 0.191,-0.083 0.374,-0.192 0.635,-0.305 0.1,-0.043 0.179,-0.144 0.27,-0.178 0.108,-0.048 0.252,-0.023 0.366,-0.066 0.125,-0.043 0.213,-0.165 0.334,-0.209 0.113,-0.043 0.248,-0.043 0.365,-0.09 0.109,-0.044 0.217,-0.141 0.331,-0.184 0.126,-0.047 0.274,-0.013 0.395,-0.06 0.135,-0.048 0.235,-0.196 0.366,-0.243 0.1,-0.04 0.222,-0.023 0.33,-0.062 0.122,-0.039 0.24,-0.139 0.365,-0.178 0.144,-0.052 0.314,-0.04 0.457,-0.096 0.127,-0.043 0.236,-0.17 0.365,-0.209 0.122,-0.044 0.266,-0.026 0.393,-0.065 0.148,-0.043 0.273,-0.161 0.426,-0.208 0.143,-0.048 0.308,-0.014 0.453,-0.062 0.129,-0.043 0.234,-0.169 0.365,-0.208 0.126,-0.048 0.282,-0.022 0.426,-0.066 0.174,-0.048 0.316,-0.195 0.482,-0.243 0.139,-0.034 0.287,0.012 0.426,-0.03 0.139,-0.04 0.258,-0.166 0.396,-0.209 0.417,-0.136 0.879,-0.136 1.245,-0.396 0,-6.907 -0.004,-14.319 0,-21.356 0,-1.209 0.122,-2.558 -0.061,-3.637 -0.061,-0.326 -0.166,-0.687 -0.214,-1.122 0,0.005 -0.03,-0.048 -0.034,-0.065 -0.122,-0.461 -0.37,-0.87 -0.514,-1.3 -0.326,-0.383 -0.618,-0.797 -0.969,-1.154 -0.314,-0.164 -0.601,-0.347 -0.849,-0.578 -0.287,0.035 -0.456,-0.243 -0.699,-0.3 -0.145,-0.034 -0.305,-0.034 -0.453,-0.096 -0.114,-0.039 -0.222,-0.147 -0.336,-0.178 -0.157,-0.039 -0.343,-0.022 -0.516,-0.056 -0.14,-0.039 -0.258,-0.127 -0.393,-0.152 -0.709,-0.162 -1.443,-0.083 -2.274,-0.188 -0.153,-0.016 -0.304,-0.104 -0.457,-0.122 -0.913,-0.095 -2.045,0 -3.124,0 -0.49,0 -1.004,0.005 -1.486,0 -0.549,-0.004 -1.102,-0.047 -1.545,0 -0.151,0.018 -0.283,0.106 -0.426,0.122 -0.699,0.101 -1.404,0.014 -2.062,0.065 -1.366,0.1 -2.678,0.357 -3.852,0.631 -0.188,0.048 -0.336,0.16 -0.519,0.218 -0.161,0.044 -0.303,0.017 -0.421,0.056 -0.13,0.047 -0.187,0.153 -0.336,0.217 -0.095,0.039 -0.244,0.005 -0.361,0.058 -0.096,0.039 -0.17,0.161 -0.273,0.212 -0.296,0.144 -0.639,0.261 -0.944,0.427 -0.353,0.192 -0.732,0.469 -1.092,0.725 -0.714,0.511 -1.371,1.11 -2.027,1.636 -0.336,0.27 -0.718,0.548 -1.005,0.848 -0.874,0.932 -1.866,1.728 -2.731,2.732 -1.156,1.353 -2.336,2.619 -3.332,4.006 -0.513,0.709 -1.035,1.427 -1.518,2.153 -0.361,0.544 -0.691,1.135 -1.031,1.697 -0.113,0.191 -0.265,0.365 -0.365,0.547 -0.048,0.088 -0.04,0.218 -0.092,0.305 -0.043,0.078 -0.143,0.113 -0.182,0.183 -0.052,0.096 -0.039,0.213 -0.092,0.3 -0.047,0.082 -0.142,0.113 -0.181,0.182 -0.059,0.114 -0.045,0.223 -0.088,0.309 -0.348,0.649 -0.705,1.288 -1.035,1.875 -0.053,0.374 -0.192,0.557 -0.33,0.913 -0.054,0.126 -0.171,0.192 -0.215,0.301 -0.039,0.103 -0.017,0.234 -0.061,0.338 -0.043,0.105 -0.16,0.183 -0.213,0.3 -0.134,0.297 -0.208,0.667 -0.334,1.001 -0.047,0.144 -0.193,0.253 -0.24,0.396 -0.034,0.088 -0.004,0.205 -0.031,0.3 -0.107,0.409 -0.39,0.809 -0.516,1.214 -0.039,0.135 -0.017,0.295 -0.061,0.425 -0.217,0.706 -0.501,1.38 -0.728,2.154 -0.055,0.195 -0.068,0.404 -0.121,0.609 -0.047,0.169 -0.138,0.343 -0.182,0.514 -0.14,0.574 -0.222,1.161 -0.335,1.76 -0.048,0.27 -0.196,0.514 -0.239,0.784 -0.035,0.195 0,0.396 -0.031,0.582 -0.057,0.331 -0.222,0.73 -0.274,1.149 -0.13,1.061 -0.204,2.109 -0.304,3.214 -0.009,0.136 -0.082,0.283 -0.092,0.43 -0.009,0.14 0.044,0.283 0.03,0.422 -0.008,0.153 -0.103,0.314 -0.122,0.426 -0.073,0.531 -0.017,1.149 -0.06,1.723 -0.052,0.743 0.017,1.566 0.06,2.31 0.022,0.396 -0.025,0.775 0,1.121 0.019,0.219 0.11,0.423 0.122,0.636 0.009,0.131 -0.039,0.27 -0.03,0.396 0.01,0.134 0.078,0.265 0.092,0.395 0.057,0.531 0.014,1.071 0.092,1.606 0.043,0.287 0.138,0.556 0.181,0.848 0.049,0.351 0.028,0.721 0.092,1.061 0.026,0.152 0.122,0.278 0.153,0.427 0.082,0.396 0.065,0.791 0.148,1.183 0.086,0.378 0.139,0.761 0.217,1.122 0.039,0.2 0.16,0.383 0.209,0.574 0.056,0.222 0.039,0.456 0.091,0.67 0.044,0.183 0.161,0.356 0.213,0.548 0.04,0.143 0.022,0.317 0.061,0.452 0.049,0.169 0.17,0.317 0.213,0.488 0.043,0.177 0.004,0.378 0.06,0.548 0.04,0.129 0.17,0.234 0.209,0.36 0.043,0.135 0.022,0.292 0.061,0.426 0.044,0.152 0.161,0.274 0.214,0.426 0.048,0.135 0.044,0.319 0.091,0.453 0.052,0.139 0.179,0.244 0.214,0.365 0.03,0.1 -0.005,0.226 0.03,0.331 0.099,0.344 0.34,0.656 0.426,1.001 0.517,0.078 0.961,-0.022 1.365,0.064 0.18,0.031 0.331,0.153 0.514,0.209 0.13,0.044 0.279,0.022 0.396,0.066 0.105,0.034 0.188,0.152 0.305,0.204 0.259,0.13 0.443,0.17 0.695,0.339 0.283,0.196 0.656,0.57 0.909,0.879 0.271,0.331 0.63,0.861 0.786,1.336 0.14,0.421 0.154,0.942 0.215,1.395 0.017,0.109 0.09,0.227 0.09,0.331 0,0.105 -0.073,0.235 -0.09,0.365 -0.022,0.174 0.026,0.361 0,0.518 -0.022,0.14 -0.123,0.274 -0.153,0.422 -0.034,0.178 0.009,0.365 -0.03,0.518 -0.032,0.117 -0.149,0.23 -0.209,0.395 -0.126,0.305 -0.126,0.496 -0.309,0.818 -0.096,0.174 -0.244,0.274 -0.239,0.392 0,0.073 0.178,0.304 0.304,0.487 0.292,0.431 0.63,0.918 0.94,1.365 0.218,0.318 0.487,0.57 0.696,0.844 0.227,0.301 0.401,0.609 0.635,0.888 0.487,0.557 0.922,1.161 1.4,1.696 0.493,0.552 1.079,1.013 1.514,1.544 0.252,0.305 0.492,0.661 0.762,0.882 0.646,0.54 1.243,1.127 1.879,1.697 0.461,0.414 0.965,0.796 1.453,1.214 0.461,0.391 0.968,0.8 1.487,1.183 0.517,0.383 1.034,0.77 1.578,1.117 0.341,0.222 0.7,0.466 1.062,0.705 0.182,0.122 0.386,0.191 0.574,0.3 0.083,0.048 0.131,0.157 0.214,0.209 0.247,0.165 0.547,0.3 0.821,0.461 0.266,0.157 0.523,0.282 0.818,0.452 0.165,0.1 0.288,0.166 0.513,0.275 0.443,0.2 0.857,0.487 1.335,0.726 0.283,0.143 0.487,0.231 0.822,0.365 0.118,0.048 0.213,0.157 0.331,0.214 0.086,0.039 0.187,0.026 0.274,0.06 0.126,0.048 0.214,0.169 0.304,0.21 0.109,0.051 0.257,0.047 0.362,0.09 0.122,0.057 0.19,0.149 0.273,0.183 0.314,0.135 0.697,0.234 1.001,0.366 0.135,0.056 0.227,0.174 0.334,0.213 0.11,0.039 0.253,0 0.366,0.03 0.14,0.039 0.252,0.192 0.391,0.243 0.109,0.039 0.248,0.017 0.366,0.057 0.139,0.048 0.256,0.169 0.396,0.218 0.131,0.039 0.292,0.017 0.421,0.056 0.435,0.131 0.844,0.356 1.275,0.487 0.161,0.049 0.33,0.044 0.483,0.088 0.138,0.048 0.236,0.143 0.37,0.186 0.173,0.057 0.404,0.039 0.604,0.087 0.17,0.048 0.318,0.14 0.484,0.187 0.186,0.044 0.39,0.044 0.577,0.088 0.192,0.046 0.383,0.168 0.575,0.212 0.192,0.044 0.409,0.018 0.608,0.061 0.383,0.082 0.736,0.201 1.153,0.245 0.396,0.042 0.754,0.229 1.123,0.268 1.126,0.136 2.257,0.297 3.396,0.397 1.936,0.169 4.903,0.247 7.037,0.09 0.241,-0.017 0.457,0.031 0.666,0 0.131,-0.017 0.235,-0.1 0.366,-0.121 0.46,-0.074 1.018,-0.052 1.488,-0.091 0.504,-0.039 0.965,-0.17 1.452,-0.244 0.304,-0.04 0.597,-0.017 0.884,-0.056 0.291,-0.048 0.551,-0.201 0.878,-0.243 0.221,-0.032 0.444,0.012 0.665,-0.032 0.226,-0.048 0.44,-0.199 0.67,-0.243 0.238,-0.044 0.474,-0.005 0.696,-0.056 0.186,-0.053 0.356,-0.18 0.543,-0.219 0.171,-0.034 0.331,0.01 0.488,-0.03 0.152,-0.03 0.286,-0.16 0.456,-0.213 0.166,-0.048 0.344,-0.039 0.514,-0.087 0.135,-0.043 0.256,-0.143 0.394,-0.186 0.185,-0.049 0.393,-0.032 0.581,-0.088 0.121,-0.043 0.238,-0.139 0.36,-0.187 0.157,-0.047 0.331,-0.012 0.487,-0.056 0.153,-0.049 0.279,-0.196 0.422,-0.244 0.135,-0.044 0.295,-0.017 0.427,-0.056 0.134,-0.049 0.23,-0.165 0.365,-0.218 0.108,-0.04 0.251,-0.052 0.36,-0.091 0.127,-0.044 0.24,-0.136 0.366,-0.179 0.347,-0.135 0.74,-0.195 1.061,-0.334 0.117,-0.052 0.183,-0.162 0.305,-0.213 0.099,-0.039 0.23,-0.018 0.331,-0.057 0.134,-0.062 0.213,-0.196 0.335,-0.249 0.208,-0.082 0.477,-0.034 0.608,-0.269 0.122,-0.008 0.248,-0.018 0.334,-0.06 0.145,-0.031 0.21,-0.139 0.301,-0.214 0.266,-0.008 0.392,-0.156 0.574,-0.244 0.197,-0.065 0.444,-0.082 0.426,-0.36"
       style="fill:#171717;fill-opacity:1;fill-rule:evenodd;stroke:none;stroke-width:2.27356"
       id="path954" /><path
       d="m 314.8321,107.215 c -0.117,0.932 -0.062,1.906 -0.062,2.884 v 18.015 c 0,1.144 -0.016,2.35 0.062,3.337 0.021,0.309 -0.031,0.614 0,0.909 0.034,0.365 0.143,0.765 0.182,1.183 0.03,0.353 -0.004,0.735 0.056,1.066 0.049,0.226 0.178,0.431 0.214,0.63 0.042,0.249 0.021,0.478 0.061,0.7 0.139,0.714 0.491,1.653 0.731,2.306 0.056,0.157 0.033,0.318 0.086,0.457 0.043,0.104 0.17,0.195 0.213,0.3 0.057,0.13 0.039,0.277 0.096,0.391 0.035,0.091 0.135,0.156 0.177,0.248 0.663,1.335 1.52,2.562 2.671,3.427 0.392,0.323 0.902,0.531 1.306,0.849 0.809,0.226 1.408,0.53 2.365,0.574 0.496,0.027 1.311,0.057 1.88,0.035 0.562,-0.027 1.013,-0.165 1.487,-0.275 0.166,-0.043 0.357,-0.013 0.514,-0.064 0.112,-0.031 0.261,-0.153 0.395,-0.209 0.945,-0.379 1.828,-0.906 2.58,-1.457 0.496,-0.531 1.013,-1.053 1.483,-1.666 0.3,-0.392 0.597,-0.787 0.853,-1.244 0.243,-0.435 0.474,-0.905 0.695,-1.366 0.174,-0.369 0.293,-0.692 0.453,-1.123 0.186,-0.491 0.352,-1.026 0.518,-1.634 0.052,-0.21 0.173,-0.387 0.213,-0.579 0.195,-0.923 0.361,-1.844 0.513,-2.793 0.034,-0.195 0.047,-0.413 0.066,-0.604 0.125,-1.801 0.051,-3.885 -0.187,-5.459 -0.061,-0.425 -0.045,-0.874 -0.119,-1.244 -0.034,-0.165 -0.143,-0.318 -0.183,-0.487 -0.06,-0.248 -0.039,-0.513 -0.09,-0.756 -0.043,-0.196 -0.161,-0.361 -0.213,-0.548 -0.062,-0.222 -0.031,-0.436 -0.092,-0.631 -0.082,-0.278 -0.321,-0.535 -0.24,-0.857 -0.129,-0.209 -0.307,-0.379 -0.274,-0.752 -0.316,-0.484 -0.413,-1.054 -0.669,-1.549 -0.5,-0.991 -0.957,-1.967 -1.544,-2.88 -0.292,-0.447 -0.584,-0.9 -0.883,-1.309 -0.619,-0.844 -1.366,-1.588 -2.091,-2.335 -0.728,-0.744 -1.497,-1.458 -2.399,-2.002 -0.494,-0.495 -1.164,-0.769 -1.787,-1.152 -0.068,-0.039 -0.117,-0.152 -0.182,-0.182 -0.087,-0.044 -0.205,-0.009 -0.304,-0.061 -0.074,-0.039 -0.145,-0.117 -0.214,-0.153 -0.091,-0.047 -0.165,-0.044 -0.269,-0.086 -0.584,-0.253 -1.115,-0.575 -1.793,-0.793 -0.139,-0.043 -0.282,-0.073 -0.425,-0.122 -0.457,-0.151 -1.083,-0.373 -1.666,-0.452 -0.44,-0.06 -0.862,-0.208 -1.306,-0.274 -0.269,-0.043 -0.569,0 -0.848,-0.034 -0.657,-0.061 -1.331,-0.226 -2.03,-0.179"
       style="fill:#171717;fill-opacity:1;fill-rule:evenodd;stroke:none;stroke-width:2.27356"
       id="path956" /><path
       d="m 337.8184,139.2154 h 0.096 c 1.371,-1.449 2.718,-2.98 3.94,-4.606 0.401,-0.54 0.739,-1.135 1.153,-1.675 0.313,-0.405 0.574,-0.862 0.848,-1.301 0.44,-0.691 0.923,-1.448 1.305,-2.214 0.396,-0.787 0.797,-1.583 1.215,-2.37 0.168,-0.313 0.321,-0.596 0.455,-0.935 0.07,-0.178 0.174,-0.3 0.24,-0.457 0.053,-0.113 0.043,-0.278 0.092,-0.392 0.108,-0.256 0.334,-0.631 0.455,-0.943 0.044,-0.109 0.049,-0.24 0.092,-0.362 0.083,-0.222 0.273,-0.361 0.244,-0.7 0.234,-0.216 0.209,-0.508 0.3,-0.786 0.047,-0.14 0.165,-0.262 0.213,-0.397 0.047,-0.131 0.043,-0.279 0.09,-0.426 0.045,-0.131 0.145,-0.257 0.184,-0.396 0.043,-0.139 0.021,-0.309 0.06,-0.452 0.043,-0.161 0.166,-0.291 0.209,-0.452 0.057,-0.175 0.044,-0.37 0.096,-0.549 0.053,-0.182 0.174,-0.357 0.213,-0.517 0.03,-0.135 0,-0.283 0.027,-0.422 0.047,-0.213 0.196,-0.396 0.248,-0.609 0.035,-0.165 -0.004,-0.343 0.026,-0.513 0.048,-0.243 0.195,-0.474 0.243,-0.731 0.039,-0.191 0.03,-0.418 0.06,-0.605 0.054,-0.304 0.205,-0.57 0.244,-0.848 0.052,-0.339 0.017,-0.687 0.088,-1.03 0.035,-0.157 0.121,-0.296 0.156,-0.457 0.06,-0.309 0.056,-0.674 0.092,-1.035 0.051,-0.535 0.161,-1.032 0.209,-1.632 0.095,-1.187 0,-2.7 0,-4.188 0,-1.696 0.143,-3.441 -0.061,-4.88 -0.044,-0.322 -0.144,-0.614 -0.18,-0.913 -0.034,-0.297 0.005,-0.57 -0.029,-0.85 -0.044,-0.356 -0.178,-0.686 -0.244,-1.034 -0.057,-0.274 -0.009,-0.57 -0.061,-0.848 -0.043,-0.226 -0.17,-0.44 -0.214,-0.665 -0.043,-0.231 -0.012,-0.471 -0.06,-0.701 -0.039,-0.187 -0.17,-0.379 -0.212,-0.574 -0.045,-0.205 -0.018,-0.409 -0.057,-0.609 -0.044,-0.183 -0.17,-0.356 -0.213,-0.548 -0.131,-0.5 -0.227,-1.005 -0.371,-1.479 -0.039,-0.144 -0.134,-0.252 -0.177,-0.396 -0.044,-0.143 -0.022,-0.309 -0.061,-0.452 -0.044,-0.156 -0.166,-0.275 -0.215,-0.431 -0.043,-0.135 -0.021,-0.283 -0.06,-0.426 -0.043,-0.149 -0.188,-0.287 -0.243,-0.448 -0.039,-0.13 -0.017,-0.278 -0.062,-0.396 -0.043,-0.135 -0.165,-0.26 -0.209,-0.395 -0.042,-0.127 -0.017,-0.257 -0.064,-0.361 -0.043,-0.127 -0.161,-0.214 -0.209,-0.336 -0.043,-0.117 -0.022,-0.256 -0.061,-0.365 -0.039,-0.108 -0.135,-0.217 -0.183,-0.335 -0.169,-0.413 -0.313,-0.892 -0.579,-1.244 -0.238,-0.792 -0.638,-1.418 -0.939,-2.153 -0.595,-1.083 -1.226,-2.197 -1.878,-3.27 -0.827,-1.375 -1.779,-2.684 -2.728,-3.976 -0.63,-0.862 -1.396,-1.692 -2.122,-2.522 -0.653,-0.731 -1.288,-1.454 -1.974,-2.15 -0.335,-0.344 -0.745,-0.621 -1.093,-0.97 -1,-1.017 -2.113,-1.979 -3.367,-2.823 -0.604,-0.409 -1.238,-0.808 -1.939,-1.147 -0.118,-0.061 -0.27,-0.071 -0.396,-0.127 -0.117,-0.056 -0.2,-0.173 -0.304,-0.212 -0.117,-0.039 -0.257,-0.027 -0.365,-0.058 -0.156,-0.052 -0.271,-0.165 -0.422,-0.217 -0.139,-0.039 -0.292,-0.017 -0.426,-0.056 -0.144,-0.049 -0.27,-0.17 -0.424,-0.218 -0.238,-0.06 -0.491,-0.035 -0.73,-0.086 -0.182,-0.044 -0.36,-0.144 -0.543,-0.183 -1.07,-0.209 -2.166,-0.275 -3.367,-0.362 -0.392,-0.034 -0.801,-0.017 -1.213,-0.065 -0.192,-0.021 -0.375,-0.104 -0.578,-0.122 -0.549,-0.039 -1.145,0 -1.727,0 h -3.55 c -0.557,0 -1.139,-0.065 -1.67,0.096 -0.071,9.987 -0.008,20.274 -0.026,30.207 0.443,0.257 0.904,0.248 1.514,0.366 0.23,0.044 0.426,0.187 0.665,0.24 0.152,0.039 0.304,0 0.457,0.03 0.209,0.044 0.396,0.191 0.608,0.243 0.131,0.035 0.266,0 0.393,0.035 0.173,0.039 0.316,0.187 0.486,0.239 0.122,0.039 0.274,0.023 0.393,0.062 0.129,0.039 0.238,0.134 0.365,0.181 0.139,0.048 0.282,0.066 0.426,0.122 0.321,0.118 0.626,0.287 0.939,0.423 0.322,0.143 0.66,0.229 0.969,0.365 0.096,0.044 0.144,0.131 0.244,0.183 0.1,0.051 0.231,0.039 0.336,0.09 0.182,0.083 0.36,0.209 0.543,0.306 0.539,0.269 1.062,0.617 1.58,0.94 0.1,0.059 0.195,0.059 0.304,0.121 0.081,0.043 0.125,0.152 0.212,0.208 0.326,0.236 0.714,0.409 1.032,0.64 0.809,0.582 1.596,1.213 2.331,1.879 0.426,0.383 0.93,0.77 1.336,1.183 0.56,0.57 1.121,1.131 1.639,1.73 1.022,1.176 2.07,2.441 2.91,3.82 0.209,0.343 0.468,0.66 0.67,1.005 0.209,0.352 0.3,0.765 0.604,1.057 0.191,0.443 0.413,0.84 0.639,1.305 0.065,0.139 0.187,0.261 0.243,0.395 0.117,0.306 0.215,0.635 0.362,0.944 0.135,0.274 0.305,0.557 0.427,0.848 0.047,0.118 0.039,0.266 0.086,0.396 0.043,0.105 0.144,0.192 0.187,0.3 0.04,0.113 0.048,0.248 0.087,0.365 0.052,0.136 0.139,0.258 0.183,0.392 0.049,0.134 0.049,0.291 0.091,0.426 0.044,0.126 0.136,0.231 0.183,0.361 0.047,0.135 0.021,0.292 0.06,0.427 0.049,0.152 0.166,0.278 0.214,0.422 0.053,0.169 0.039,0.369 0.087,0.548 0.053,0.17 0.174,0.299 0.213,0.457 0.039,0.151 0,0.321 0.035,0.482 0.053,0.269 0.222,0.526 0.269,0.792 0.027,0.152 0.004,0.326 0.032,0.482 0.05,0.266 0.133,0.501 0.181,0.762 0.053,0.278 0.057,0.556 0.092,0.847 0.039,0.327 0.17,0.628 0.213,0.94 0.096,0.731 0.039,1.461 0.091,2.215 0.009,0.151 0.1,0.303 0.118,0.451 0.091,0.732 -0.031,1.719 -0.087,2.345 -0.061,0.622 -0.013,1.514 -0.153,2.179 -0.034,0.148 -0.125,0.274 -0.152,0.421 -0.044,0.214 -0.026,0.448 -0.06,0.667 -0.044,0.277 -0.188,0.552 -0.243,0.822 -0.039,0.182 -0.023,0.356 -0.062,0.517 -0.039,0.161 -0.165,0.317 -0.214,0.487 -0.039,0.148 -0.017,0.304 -0.06,0.452 -0.043,0.157 -0.16,0.297 -0.213,0.453 -0.031,0.108 -0.022,0.234 -0.057,0.339 -0.043,0.126 -0.164,0.222 -0.213,0.362 -0.035,0.099 -0.021,0.234 -0.06,0.334 -0.053,0.13 -0.149,0.239 -0.214,0.397 -0.161,0.377 -0.374,0.852 -0.573,1.208 -0.01,0.053 0.025,0.053 0.025,0.092"
       style="fill:#171717;fill-opacity:1;fill-rule:evenodd;stroke:none;stroke-width:2.27356"
       id="path958" /><path
       d="m 185.3145,48.6749 c 0.136,-0.014 0.279,-0.078 0.422,-0.092 0.588,-0.056 1.314,0 2.001,0 0.705,0 1.436,-0.064 2.006,0 0.122,0.014 0.243,0.078 0.365,0.092 0.178,0.017 0.356,-0.022 0.513,0 0.126,0.022 0.265,0.092 0.426,0.122 0.187,0.039 0.417,0.017 0.575,0.061 0.108,0.03 0.172,0.156 0.304,0.212 0.13,0.053 0.318,0.031 0.451,0.087 0.115,0.053 0.292,0.187 0.427,0.278 0.744,0.484 1.492,1.271 1.854,2.18 0.469,1.201 0.495,2.94 0,4.128 -0.088,0.209 -0.275,0.448 -0.426,0.696 -0.145,0.235 -0.262,0.509 -0.424,0.699 -0.369,0.428 -0.934,0.758 -1.399,1.002 -0.101,0.047 -0.179,0.143 -0.275,0.177 -1.013,0.445 -2.453,0.367 -3.97,0.367 -0.818,0 -1.666,0.065 -2.428,0 -0.609,-0.053 -1.6,0.012 -2.121,-0.214 -0.201,-1.088 -0.015,-2.318 -0.092,-3.484 -0.014,-0.191 -0.084,-0.37 -0.092,-0.548 -0.053,-1.405 0.03,-2.953 0.03,-4.366 0,-0.458 -0.083,-0.966 0.123,-1.367 0.561,-0.113 1.134,0.035 1.73,-0.03 m -1.822,-4.275 c -0.057,-2.593 -0.031,-5.376 -0.031,-8.125 0,-0.91 -0.083,-1.836 -0.03,-2.705 0.014,-0.163 0.083,-0.314 0.092,-0.489 0.043,-0.626 0,-1.322 0,-1.969 0,-0.631 0.125,-1.262 -0.062,-1.819 -0.229,-0.122 -0.443,0.1 -0.696,0.122 -0.574,0.052 -1.305,-0.027 -1.97,-0.027 -0.692,0 -1.338,-0.039 -1.852,-0.095 -0.166,0.596 -0.092,1.239 -0.092,1.848 v 24.846 c 0,1.404 -0.174,3.196 0.213,4.214 0.152,0.404 0.227,0.691 0.422,1.032 0.679,0.86 1.496,1.412 2.823,1.578 0.678,0.083 1.44,0 2.157,0 h 2.123 c 1.961,0 3.954,0.104 5.641,-0.152 0.191,-0.026 0.379,-0.096 0.574,-0.152 0.201,-0.061 0.405,-0.066 0.578,-0.123 0.127,-0.043 0.248,-0.16 0.393,-0.212 0.178,-0.057 0.335,-0.043 0.486,-0.122 0.758,-0.374 1.606,-0.849 2.244,-1.367 0.457,-0.365 0.805,-0.821 1.184,-1.242 0.396,-0.44 0.683,-0.928 1,-1.392 0.188,-0.358 0.322,-0.74 0.488,-1.123 0.082,-0.2 0.112,-0.396 0.182,-0.64 0.053,-0.191 0.205,-0.365 0.239,-0.543 0.048,-0.239 0.039,-0.505 0.092,-0.757 0.222,-1.074 0.101,-2.61 -0.118,-3.61 -0.043,-0.179 -0.125,-0.335 -0.188,-0.517 -0.125,-0.392 -0.213,-0.705 -0.36,-1.062 -0.14,-0.326 -0.335,-0.652 -0.517,-0.971 -0.701,-1.213 -1.757,-2.221 -2.97,-2.975 -0.593,-0.36 -1.266,-0.629 -2.063,-0.877 -0.191,-0.058 -0.357,-0.174 -0.517,-0.214 -0.192,-0.043 -0.44,-0.017 -0.665,-0.061 -0.202,-0.034 -0.388,-0.126 -0.58,-0.148 -1.752,-0.225 -4.335,-0.056 -6.463,-0.056 -0.587,0 -1.183,0.065 -1.757,-0.095"
       style="fill:#171717;fill-opacity:1;fill-rule:evenodd;stroke:none;stroke-width:2.27356"
       id="path960" /><path
       d="m 25.3731,62.4454 c 1.418,-0.2 3.268,-0.004 4.641,-0.087 0.005,-1.131 -0.104,-2.162 -0.09,-3.519 0.029,-2.909 -0.092,-6.08 -0.092,-9.225 v -7.489 c 0,-3.128 0.092,-6.252 0.092,-9.222 0,-0.618 -0.044,-1.248 0,-1.849 0.039,-0.539 0.243,-1.17 0,-1.731 -0.606,-0.009 -1.223,0.118 -1.85,0.152 -0.947,0.053 -1.865,-0.139 -2.731,-0.182 -0.144,0.5 -0.034,0.992 0,1.518 0.065,0.874 -0.07,1.783 0,2.666 0.018,0.214 0.113,0.426 0.122,0.639 0.06,1.187 -0.109,2.441 -0.03,3.702 0.143,2.245 0.09,5.054 0.09,7.643 0,2.617 0.083,5.293 -0.09,7.519 -0.109,1.397 0.116,2.84 0.03,4.189 -0.009,0.187 -0.104,0.343 -0.122,0.548 -0.083,0.9 0.057,2.079 0,3.058 -0.026,0.452 -0.139,1.278 -0.031,1.583 0,0.048 0.022,0.074 0.061,0.087"
       style="fill:#171717;fill-opacity:1;fill-rule:evenodd;stroke:none;stroke-width:2.27356"
       id="path962" /><path
       d="m 113.0342,55.3165 c 0.413,-0.209 0.966,-0.122 1.483,-0.122 h 3.219 c 0.513,0 1.035,0.061 1.453,-0.056 -0.066,-0.805 -0.23,-1.871 -0.152,-2.858 0.039,-0.448 0.265,-0.861 0.096,-1.239 -0.366,-0.136 -0.775,0.017 -1.188,0.064 -0.762,0.075 -1.64,0 -2.484,0 -0.844,0 -1.692,0.044 -2.427,-0.064 -0.191,-0.631 -0.108,-1.379 -0.091,-2.153 0.047,-2.162 0,-4.485 0,-6.738 0,-0.705 0.018,-1.413 0,-2.087 -0.044,-1.589 -0.017,-3.184 0.513,-4.49 0.239,-0.591 0.735,-1.214 1.244,-1.579 0.208,-0.147 0.569,-0.326 0.821,-0.395 0.946,-0.248 2.641,-0.005 3.637,-0.056 0.078,-0.505 -0.064,-1.066 -0.121,-1.641 -0.084,-0.922 0.178,-1.822 0.096,-2.609 -2.206,-0.022 -4.237,-0.048 -5.86,0.518 -0.121,0.039 -0.2,0.151 -0.33,0.209 -0.139,0.064 -0.301,0.056 -0.427,0.126 -0.443,0.225 -0.882,0.546 -1.274,0.873 -0.879,0.754 -1.471,1.679 -2,2.823 -0.127,0.274 -0.184,0.536 -0.306,0.913 -0.117,0.366 -0.147,0.597 -0.208,1.123 -0.022,0.156 -0.109,0.304 -0.126,0.453 -0.012,0.131 0.039,0.26 0.035,0.391 -0.008,0.183 -0.109,0.365 -0.122,0.517 -0.109,0.983 0,2.092 0,3.158 0,7.16 -0.027,14.932 0.026,21.961 1.297,0.031 2.958,-0.03 4.25,0.057 0.052,0.004 0.064,0.035 0.121,0.03 0.262,-0.017 0.183,-0.618 0.183,-1.031 0,-0.508 0.022,-0.896 0,-1.214 -0.013,-0.165 -0.087,-0.356 -0.091,-0.452 -0.096,-1.432 0.13,-3.236 0.03,-4.432"
       style="fill:#171717;fill-opacity:1;fill-rule:evenodd;stroke:none;stroke-width:2.27356"
       id="path964" /><path
       d="m 149.6133,62.4454 c 1.354,-0.205 3.119,0.005 4.428,-0.087 0.14,-0.327 -0.051,-0.657 -0.09,-0.944 -0.083,-0.609 0,-1.301 0,-1.94 0,-1.383 -0.088,-2.814 -0.031,-4.188 0.457,-0.157 0.996,-0.091 1.517,-0.091 1.524,0 3.28,0.051 4.733,-0.057 -0.178,-0.63 -0.252,-1.609 -0.213,-2.519 0.021,-0.565 0.117,-1.082 0.152,-1.514 -0.37,-0.225 -0.835,-0.042 -1.274,0 -1.535,0.135 -3.38,-0.059 -4.855,-0.064 -0.16,-0.545 -0.091,-1.118 -0.091,-1.67 0,-1.85 0,-3.954 -0.06,-5.734 -0.048,-1.387 -0.031,-2.809 0.06,-4.092 0.066,-0.926 -0.035,-1.775 0.122,-2.549 0.047,-0.239 0.07,-0.5 0.122,-0.722 0.026,-0.122 0.126,-0.204 0.183,-0.34 0.051,-0.121 0.043,-0.282 0.091,-0.395 0.147,-0.352 0.448,-0.665 0.604,-1 0.266,-0.322 0.622,-0.54 1.061,-0.762 0.266,-0.125 0.579,-0.231 1.031,-0.265 0.966,-0.078 2.127,0.078 3.006,0 -0.06,-0.814 -0.2,-2.109 -0.121,-3.188 0.025,-0.362 0.182,-0.67 0.121,-0.971 -1.736,-0.091 -3.559,-0.138 -5.007,0.183 -0.151,0.035 -0.268,0.131 -0.426,0.182 -0.161,0.054 -0.338,0.036 -0.482,0.093 -0.122,0.039 -0.179,0.148 -0.305,0.209 -0.122,0.064 -0.283,0.064 -0.395,0.126 -0.653,0.347 -1.258,0.826 -1.788,1.305 -0.479,0.526 -0.918,1.13 -1.275,1.817 -0.113,0.219 -0.248,0.47 -0.335,0.696 -0.044,0.127 -0.044,0.283 -0.087,0.426 -0.056,0.166 -0.169,0.296 -0.212,0.453 -0.053,0.192 -0.043,0.456 -0.092,0.696 -0.383,1.875 -0.213,4.215 -0.213,6.524 v 16.986 c 0,1.165 -0.022,2.352 0.03,3.309 0.017,0.044 0.048,0.07 0.091,0.087"
       style="fill:#171717;fill-opacity:1;fill-rule:evenodd;stroke:none;stroke-width:2.27356"
       id="path966" /><path
       d="m 82.7618,62.4156 c 1.365,-0.114 2.962,-0.031 4.275,-0.031 0.143,-2.436 -0.144,-5.054 0.036,-7.124 1.909,-0.183 4.244,0.056 6.154,-0.122 -0.209,-0.979 -0.152,-2.097 -0.092,-3.25 0.014,-0.291 0.096,-0.701 0,-0.818 -0.165,-0.199 -0.904,0 -1.183,0.035 -1.453,0.153 -3.367,-0.095 -4.854,-0.035 -0.135,-2.369 -0.148,-5.045 -0.148,-7.829 0,-1.496 -0.104,-3.039 0,-4.362 0.013,-0.174 0.079,-0.357 0.087,-0.547 0.032,-0.453 -0.043,-0.862 0.036,-1.276 0.029,-0.173 0.099,-0.365 0.146,-0.548 0.058,-0.192 0.066,-0.399 0.123,-0.574 0.034,-0.113 0.125,-0.205 0.183,-0.33 0.055,-0.126 0.065,-0.287 0.122,-0.396 0.117,-0.235 0.339,-0.518 0.547,-0.727 0.379,-0.386 0.765,-0.734 1.332,-0.882 0.978,-0.253 2.496,-0.005 3.609,-0.057 0.035,-0.53 0.018,-1.1 0,-1.67 -0.008,-0.252 -0.096,-0.509 -0.091,-0.761 0.004,-0.166 0.083,-0.318 0.091,-0.483 0.031,-0.435 -0.004,-0.871 0.031,-1.275 -0.431,-0.117 -0.984,-0.061 -1.518,-0.061 -0.548,0 -1.122,-0.056 -1.605,0 -0.143,0.018 -0.287,0.109 -0.427,0.122 -0.482,0.053 -0.938,0.004 -1.365,0.087 0.004,0 -0.012,0.031 -0.026,0.035 -0.504,0.131 -1.088,0.34 -1.549,0.548 -0.092,0.039 -0.148,0.087 -0.243,0.152 -0.536,0.339 -1.15,0.653 -1.549,1.179 -0.399,0.344 -0.769,0.805 -1.061,1.305 -0.209,0.357 -0.405,0.653 -0.575,1.122 -0.082,0.226 -0.216,0.466 -0.273,0.67 -0.057,0.192 -0.043,0.457 -0.122,0.727 -0.3,1.009 -0.213,2.552 -0.213,3.97 v 19.839 c 0,1.166 -0.023,2.34 0.03,3.309 0.022,0.027 0.057,0.044 0.092,0.058"
       style="fill:#171717;fill-opacity:1;fill-rule:evenodd;stroke:none;stroke-width:2.27356"
       id="path968" /><path
       d="m 98.3243,62.4156 h 3.423 c 0.365,0 0.735,0.06 1.03,-0.092 -0.142,-1.078 -0.174,-2.561 0,-3.61 -0.299,-0.161 -0.704,-0.091 -1.087,-0.091 -1.108,0 -2.47,-0.026 -3.458,0.034 -0.025,0.745 0.096,2.019 0.03,2.967 -0.021,0.291 -0.129,0.513 -0.03,0.734 0.022,0.027 0.053,0.044 0.092,0.058"
       style="fill:#171717;fill-opacity:1;fill-rule:evenodd;stroke:none;stroke-width:2.27356"
       id="path970" /><path
       d="m 253.6504,62.3844 c 0,-1.944 0.139,-4.236 0.03,-6.276 -0.012,-0.236 -0.165,-0.614 -0.061,-0.792 0.144,-0.231 1.115,-0.121 1.488,-0.121 1.535,0 3.301,0.051 4.701,-0.057 -0.034,-0.835 -0.164,-1.931 -0.096,-2.975 0.023,-0.26 0.176,-0.923 0.037,-1.092 -0.179,-0.205 -0.87,0 -1.154,0.034 -1.457,0.145 -3.367,-0.091 -4.854,-0.034 -0.222,-0.317 -0.148,-0.761 -0.152,-1.152 -0.048,-2.88 0.04,-6.269 0.03,-9.313 0,-1.13 -0.026,-2.171 0.061,-3.158 0.017,-0.2 0,-0.421 0.031,-0.601 0.027,-0.16 0.131,-0.287 0.183,-0.46 0.051,-0.173 0.034,-0.361 0.09,-0.509 0.31,-0.866 0.884,-1.531 1.488,-2.006 0.258,-0.02 0.445,-0.195 0.727,-0.273 1.04,-0.27 2.532,0.009 3.58,-0.056 0.087,-0.487 -0.061,-1.01 -0.092,-1.519 -0.06,-0.913 0.184,-1.874 0.062,-2.701 -0.488,-0.069 -0.988,-0.03 -1.49,-0.03 -0.525,0 -1.059,-0.048 -1.543,0 -0.156,0.017 -0.308,0.109 -0.456,0.121 -0.465,0.049 -0.91,0.014 -1.305,0.088 -0.157,0.034 -0.33,0.121 -0.518,0.187 -0.339,0.112 -0.564,0.187 -0.848,0.304 -0.121,0.047 -0.277,0.044 -0.365,0.091 -0.156,0.078 -0.322,0.248 -0.513,0.362 -0.992,0.582 -1.731,1.378 -2.335,2.396 -0.236,0.387 -0.392,0.762 -0.58,1.274 -0.043,0.122 -0.143,0.248 -0.182,0.365 -0.048,0.175 -0.034,0.379 -0.091,0.574 -0.102,0.362 -0.205,0.727 -0.24,1.276 -0.27,4.222 -0.091,9.03 -0.091,13.466 0,4.31 -0.053,8.594 0.062,12.587 1.382,-0.026 3.087,-0.043 4.396,0"
       style="fill:#171717;fill-opacity:1;fill-rule:evenodd;stroke:none;stroke-width:2.27356"
       id="path972" /><path
       d="m 278.2207,46.4913 c -0.043,0.435 -0.009,0.922 -0.061,1.336 -0.056,0.434 -0.313,0.708 -0.304,1.091 -0.26,0.339 -0.387,0.74 -0.639,1.061 -0.356,0.466 -0.814,0.765 -1.271,1.126 -0.347,-0.042 -0.491,0.231 -0.817,0.301 -0.609,0.122 -1.496,-0.021 -2.279,0.057 -0.182,0.021 -0.374,0.113 -0.544,0.126 -0.339,0.012 -0.817,-0.01 -1.001,-0.031 -0.539,-0.074 -1.068,-0.134 -1.426,-0.305 -0.335,-0.156 -0.553,-0.251 -0.822,-0.456 -0.357,-0.274 -0.566,-0.591 -0.757,-0.878 -0.044,-0.075 -0.139,-0.114 -0.179,-0.183 -0.051,-0.083 -0.035,-0.187 -0.095,-0.27 -0.057,-0.083 -0.149,-0.117 -0.178,-0.187 -0.053,-0.103 -0.035,-0.269 -0.092,-0.391 -0.064,-0.126 -0.147,-0.191 -0.181,-0.305 -0.049,-0.152 -0.027,-0.33 -0.063,-0.512 -0.047,-0.236 -0.174,-0.492 -0.213,-0.731 -0.056,-0.375 -0.051,-0.845 -0.06,-1.275 -0.009,-0.418 -0.048,-0.892 0.091,-1.305 3.428,-0.174 7.286,-0.087 10.77,-0.03 0.387,0.409 0.183,1.104 0.121,1.761 m 4.245,-5.824 h -13.343 c -0.496,0 -1.658,0.105 -1.824,-0.091 -0.155,-0.187 0.009,-0.631 0,-0.91 -0.012,-0.487 0.027,-0.878 0.123,-1.304 0.111,-0.505 0.226,-1.031 0.426,-1.488 0.039,-0.091 0.131,-0.2 0.178,-0.3 0.347,-0.679 0.797,-1.361 1.396,-1.818 0.078,-0.061 0.17,-0.091 0.244,-0.152 0.178,-0.148 0.448,-0.331 0.696,-0.457 0.091,-0.044 0.186,-0.066 0.273,-0.122 0.192,-0.121 0.371,-0.165 0.641,-0.274 1.652,-0.661 4.285,-0.456 6.519,-0.395 0.539,0.017 1.071,-0.061 1.574,-0.031 0.227,0.013 0.431,0.079 0.64,0.091 0.217,0.018 0.427,-0.043 0.608,-0.026 0.297,0.026 0.649,0.222 1.001,0.122 0.144,-0.308 0.027,-0.648 0,-1.004 -0.078,-1.08 0.109,-2.306 0.056,-3.184 -2.03,-0.058 -4.265,-0.031 -6.459,-0.031 -0.73,0 -1.509,-0.083 -2.181,0 -0.137,0.017 -0.28,0.104 -0.428,0.121 -0.509,0.056 -1.096,0 -1.574,0.088 -0.17,0.039 -0.34,0.17 -0.514,0.217 -0.187,0.048 -0.387,0.039 -0.547,0.092 -0.122,0.034 -0.205,0.131 -0.336,0.182 -0.378,0.157 -0.717,0.217 -1.092,0.392 -0.252,0.117 -0.512,0.322 -0.756,0.482 -0.195,0.131 -0.371,0.222 -0.58,0.366 -1.482,1 -2.652,2.61 -3.457,4.275 0.078,0.278 -0.187,0.47 -0.273,0.726 -0.04,0.136 -0.018,0.31 -0.061,0.462 -0.049,0.183 -0.17,0.356 -0.209,0.543 -0.035,0.17 -0.009,0.353 -0.031,0.548 -0.047,0.409 -0.183,0.849 -0.213,1.271 -0.135,1.901 0,4.506 0,6.585 0,1.161 0.005,2.097 0.122,2.88 0.105,0.687 0.251,1.204 0.392,1.792 0.143,0.169 0.273,0.351 0.273,0.665 0.183,0.2 0.319,0.435 0.457,0.67 0.417,0.691 0.869,1.287 1.484,1.818 0.209,0.173 0.374,0.395 0.579,0.548 0.212,0.152 0.461,0.248 0.699,0.395 0.439,0.27 0.905,0.579 1.422,0.754 0.119,0.039 0.258,0.02 0.396,0.064 0.183,0.048 0.344,0.2 0.514,0.239 0.277,0.065 0.639,0.057 0.974,0.092 1.065,0.121 2.671,0.209 3.94,0.152 0.157,-0.009 0.318,-0.099 0.484,-0.122 0.5,-0.065 1.065,-0.021 1.522,-0.122 0.326,-0.069 0.604,-0.339 0.969,-0.273 0.527,-0.353 1.123,-0.54 1.636,-0.879 0.5,-0.331 0.909,-0.757 1.397,-1.092 0.455,-0.578 0.904,-1.187 1.334,-1.849 0.07,-0.113 0.083,-0.221 0.148,-0.365 0.057,-0.113 0.174,-0.2 0.217,-0.3 0.049,-0.126 0.031,-0.292 0.088,-0.426 0.057,-0.131 0.144,-0.212 0.183,-0.335 0.048,-0.147 0.022,-0.296 0.061,-0.452 0.047,-0.192 0.173,-0.37 0.212,-0.579 0.232,-1.266 0.092,-2.966 0.092,-4.584 v -1.875 c 0,-0.626 0.069,-1.244 -0.092,-1.792"
       style="fill:#171717;fill-opacity:1;fill-rule:evenodd;stroke:none;stroke-width:2.27356"
       id="path974" /><path
       d="m 55.9161,29.2931 c -0.809,-0.022 -1.709,0.304 -2.787,0.183 -0.584,-0.065 -1.137,-0.205 -1.671,-0.152 -0.175,0.3 0.034,0.691 0.062,1 0.117,1.187 -0.097,2.57 -0.028,3.945 0.009,0.244 0.083,0.482 0.088,0.723 0.068,2.878 0.034,5.963 0.034,8.889 0,1.667 0.07,3.337 -0.335,4.58 -0.252,0.771 -0.76,1.453 -1.396,1.911 -0.199,0.148 -0.408,0.352 -0.578,0.425 -0.149,0.07 -0.344,0.061 -0.518,0.122 -0.178,0.069 -0.317,0.157 -0.452,0.186 -0.579,0.106 -1.3,0.088 -1.97,0.088 -2.023,0 -4.107,-0.008 -6.068,-0.088 -0.183,-0.482 -0.122,-1.038 -0.122,-1.583 0,-0.547 0.035,-1.13 0,-1.695 -0.009,-0.187 -0.078,-0.365 -0.087,-0.549 -0.052,-0.873 0,-1.813 0,-2.757 v -2.975 c 0,-2.123 -0.043,-4.48 0.087,-6.459 0.065,-0.987 0,-1.988 0,-2.975 0,-0.944 0.13,-1.909 -0.061,-2.819 -0.253,-0.125 -0.469,0.1 -0.726,0.122 -0.27,0.026 -0.579,0 -0.879,0.031 -0.939,0.095 -1.844,-0.117 -2.64,-0.153 -0.109,6.517 -0.06,13.705 -0.06,20.473 0,0.979 -0.122,2.036 0,2.911 0.021,0.139 0.108,0.3 0.181,0.491 0.209,0.522 0.283,0.744 0.67,1.179 0.258,0.295 0.523,0.478 0.849,0.665 0.895,0.531 2.345,0.456 3.88,0.456 h 2.488 c 2.101,0 4.336,0.127 5.976,-0.273 0.288,-0.07 0.744,-0.248 1.061,-0.392 1.305,-0.596 2.523,-1.37 3.306,-2.522 0.196,-0.283 0.434,-0.549 0.604,-0.845 0.174,-0.295 0.309,-0.665 0.457,-0.999 0.149,-0.331 0.309,-0.706 0.396,-1.032 0.365,-1.392 0.3,-3.053 0.3,-4.762 0,-5.076 0.052,-10.444 -0.061,-15.35"
       style="fill:#171717;fill-opacity:1;fill-rule:evenodd;stroke:none;stroke-width:2.27356"
       id="path976" /><path
       d="m 215.375,51.193 h -1.792 c -1.188,0 -2.437,0.104 -3.581,0 -0.173,-0.018 -0.482,-0.03 -0.635,-0.061 -0.096,-0.017 -0.221,-0.117 -0.365,-0.183 -0.139,-0.064 -0.308,-0.09 -0.426,-0.152 -0.914,-0.457 -1.713,-1.418 -2.122,-2.396 -0.401,-0.965 -0.179,-2.184 -0.243,-3.454 -0.01,-0.221 -0.106,-0.469 -0.119,-0.67 -0.051,-0.643 0,-1.417 0,-2.183 0,-0.757 -0.056,-1.536 0,-2.214 0.017,-0.208 0.109,-0.43 0.119,-0.639 0.025,-0.487 -0.019,-0.966 0.06,-1.332 0.03,-0.134 0.125,-0.264 0.183,-0.429 0.062,-0.166 0.056,-0.353 0.122,-0.51 0.096,-0.235 0.274,-0.5 0.426,-0.761 0.378,-0.652 0.8,-1.127 1.365,-1.604 0.145,-0.127 0.322,-0.297 0.484,-0.397 0.099,-0.065 0.221,-0.061 0.335,-0.121 0.108,-0.061 0.164,-0.179 0.244,-0.214 0.125,-0.056 0.268,-0.043 0.39,-0.096 0.135,-0.047 0.226,-0.151 0.335,-0.178 0.179,-0.043 0.409,-0.026 0.609,-0.056 0.574,-0.1 0.914,-0.136 1.483,-0.031 0.443,0.078 0.747,0.114 1.062,0.239 0.134,0.057 0.296,0.066 0.425,0.122 0.088,0.035 0.157,0.153 0.276,0.214 0.117,0.06 0.256,0.082 0.359,0.151 0.315,0.197 0.606,0.435 0.849,0.666 0.44,0.414 0.77,0.726 1.065,1.218 0.161,0.275 0.295,0.444 0.422,0.726 0.149,0.318 0.191,0.566 0.305,0.94 0.248,0.805 0.095,1.862 0.152,2.91 0.049,0.909 0.061,1.958 0.061,3.005 0,2.606 -0.039,5.025 -0.153,7.403 -0.534,0.157 -1.117,0.087 -1.695,0.087 m 6.338,-21.9 c -0.227,-0.096 -0.436,0.061 -0.67,0.095 -0.893,0.101 -1.91,0.097 -2.819,0 -0.253,-0.034 -0.483,-0.186 -0.726,-0.095 -0.192,0.579 0.086,1.628 -0.153,2.158 -0.314,0.065 -0.405,-0.344 -0.605,-0.488 -0.491,-0.234 -0.886,-0.678 -1.4,-0.913 -0.101,-0.044 -0.205,-0.035 -0.301,-0.087 -0.087,-0.052 -0.126,-0.118 -0.212,-0.152 -0.148,-0.061 -0.348,-0.053 -0.518,-0.122 -0.152,-0.07 -0.192,-0.121 -0.453,-0.187 -0.317,-0.07 -0.661,-0.231 -0.973,-0.274 -0.727,-0.083 -1.797,-0.06 -2.545,0 -0.222,0.026 -0.408,0.126 -0.64,0.187 -0.226,0.056 -0.491,0.04 -0.696,0.087 -0.117,0.034 -0.225,0.134 -0.361,0.187 -0.125,0.048 -0.282,0.078 -0.395,0.122 -0.113,0.039 -0.196,0.134 -0.306,0.183 -0.125,0.052 -0.286,0.039 -0.395,0.091 -0.1,0.043 -0.182,0.148 -0.304,0.209 -1.549,0.813 -2.963,2.122 -3.849,3.549 -0.343,0.526 -0.58,1.157 -0.91,1.697 0.026,0.329 -0.2,0.552 -0.273,0.821 -0.044,0.148 -0.022,0.326 -0.062,0.487 -0.051,0.226 -0.172,0.445 -0.213,0.666 -0.061,0.366 -0.017,0.731 -0.061,1.152 -0.013,0.144 -0.073,0.275 -0.091,0.422 -0.126,1.214 0,2.719 0,4.128 0,1.714 -0.03,3.267 0.091,4.641 0.035,0.361 0.005,0.762 0.061,1.031 0.041,0.182 0.162,0.327 0.213,0.517 0.04,0.131 0.023,0.283 0.062,0.423 0.073,0.269 0.248,0.573 0.395,0.852 0.148,0.283 0.252,0.566 0.422,0.818 0.87,1.282 1.819,2.214 3.245,2.971 0.422,0.225 0.791,0.361 1.304,0.543 0.131,0.047 0.271,0.153 0.397,0.183 0.214,0.052 0.457,0.026 0.669,0.065 0.192,0.03 0.365,0.122 0.545,0.149 1.3,0.212 3.261,0.059 5.097,0.059 1.548,0 3.096,0.105 4.397,0 0.492,-0.039 0.793,-0.208 1.24,-0.273 0.639,-0.37 1.17,-0.853 1.578,-1.453 0.006,-0.37 0.227,-0.539 0.275,-0.818 0.074,-0.434 0,-0.978 0,-1.488 0,-7.285 0.047,-15.027 -0.06,-22.143"
       style="fill:#171717;fill-opacity:1;fill-rule:evenodd;stroke:none;stroke-width:2.27356"
       id="path978" /><path
       d="m 98.294,55.2291 c 1.409,-0.183 3.14,-0.025 4.458,-0.064 -0.07,-0.814 -0.117,-1.967 -0.092,-3.033 0.018,-0.739 0.101,-1.517 0.031,-2.182 -0.017,-0.162 -0.109,-0.306 -0.122,-0.453 -0.056,-0.583 0.013,-1.258 0.031,-1.884 0.052,-1.952 0.021,-3.871 -0.031,-5.823 -0.051,-1.841 0.07,-3.663 0,-5.612 -0.022,-0.609 -0.061,-1.269 0,-1.787 0.023,-0.169 0.109,-0.322 0.122,-0.487 0.1,-1.34 -0.109,-2.68 -0.031,-3.854 0.014,-0.239 0.192,-0.448 0.062,-0.696 -0.287,-0.2 -0.579,0.034 -0.879,0.061 -0.265,0.026 -0.562,0 -0.853,0.031 -0.986,0.108 -1.9,-0.144 -2.727,-0.153 -0.139,0.34 -0.026,0.657 0,1 0.087,1.28 -0.117,2.627 0,3.945 0.018,0.209 0.1,0.423 0.118,0.637 0.108,1.19 0,2.503 0,3.791 v 3.793 c 0,2.593 0.135,5.181 0,7.52 -0.009,0.218 -0.1,0.439 -0.118,0.666 -0.091,1.074 0.07,2.41 0,3.549 -0.022,0.322 -0.126,0.701 -0.031,0.945 -0.003,0.047 0.022,0.078 0.062,0.09"
       style="fill:#171717;fill-opacity:1;fill-rule:evenodd;stroke:none;stroke-width:2.27356"
       id="path980" /><path
       d="m 127.8663,55.1651 c 0.017,-1.114 -0.091,-2.319 -0.091,-3.576 0,-3.615 -0.162,-7.877 0.061,-11.314 0.025,-0.421 -0.043,-0.878 0,-1.278 0.174,-1.639 0.9,-3.21 1.97,-4.123 0.165,-0.145 0.331,-0.27 0.514,-0.393 0.281,-0.19 0.639,-0.378 0.974,-0.543 0.134,-0.073 0.317,-0.065 0.482,-0.125 0.165,-0.062 0.261,-0.184 0.396,-0.214 0.183,-0.043 0.418,-0.021 0.639,-0.056 0.179,-0.031 0.357,-0.139 0.513,-0.153 0.283,-0.034 0.566,0.053 0.879,0.026 0.387,-0.026 0.758,-0.09 1.152,-0.09 1.106,0.003 2.34,-0.005 3.428,0.09 0.466,0.553 0.156,1.44 0.274,2.275 0.174,1.227 -0.021,2.441 0.062,3.732 0.025,0.383 0.09,0.762 0.09,1.154 v 2.517 c 0,0.818 -0.09,1.627 -0.09,2.454 0,1.261 0.012,2.513 0,3.796 -0.005,0.387 -0.088,0.762 -0.092,1.149 -0.009,1.639 -0.065,3.227 -0.03,4.702 0.931,0.022 2.083,-0.117 3.122,-0.056 0.457,0.026 0.888,0.138 1.275,0.026 0.056,-6.259 0.03,-13.358 0.03,-19.9 0,-1.244 0.139,-2.64 -0.121,-3.636 -0.057,-0.226 -0.279,-0.366 -0.274,-0.666 -0.375,-0.439 -0.68,-0.879 -1.21,-1.187 -0.317,-0.179 -0.691,-0.33 -1.152,-0.388 -0.109,-0.02 -0.204,0.023 -0.304,0 -0.114,-0.035 -0.162,-0.081 -0.275,-0.095 -0.952,-0.113 -2.009,0 -2.971,0 -1.565,0 -2.98,0.017 -4.366,0.095 -0.448,0.023 -0.953,0.058 -1.34,0.148 -0.175,0.041 -0.344,0.166 -0.544,0.214 -0.221,0.052 -0.426,0.043 -0.605,0.122 -0.713,0.309 -1.343,0.552 -2.004,0.966 -2.079,1.317 -3.711,3.314 -4.49,5.919 -0.073,0.256 -0.078,0.557 -0.147,0.848 -0.326,1.327 -0.213,3.267 -0.213,5.007 0,4.135 -0.027,8.464 0.03,12.527 0.296,0.168 1.014,0.003 1.574,0 0.97,-0.015 1.98,0.086 2.854,0.026"
       style="fill:#171717;fill-opacity:1;fill-rule:evenodd;stroke:none;stroke-width:2.27356"
       id="path982" /><path
       d="m 286.833,55.2291 c 1.378,-0.156 3.001,-0.064 4.337,-0.034 0.021,-0.322 -0.03,-0.653 -0.03,-1.001 0.003,-3.997 -0.032,-8.304 -0.032,-12.431 0,-1.539 -0.012,-2.975 0.305,-4.219 0.056,-0.209 0.187,-0.43 0.274,-0.67 0.083,-0.222 0.256,-0.399 0.274,-0.64 0.34,-0.346 0.57,-0.817 0.939,-1.178 0.18,-0.174 0.379,-0.291 0.605,-0.452 0.196,-0.139 0.379,-0.343 0.579,-0.457 0.178,-0.105 0.478,-0.195 0.726,-0.274 0.243,-0.074 0.479,-0.221 0.696,-0.274 0.187,-0.043 0.414,-0.021 0.64,-0.056 0.169,-0.031 0.352,-0.136 0.518,-0.153 0.23,-0.022 0.478,0.039 0.726,0.027 0.212,-0.005 0.443,-0.075 0.67,-0.091 1.331,-0.097 2.788,0.06 4.092,0.091 0.33,0.738 0.105,1.661 0.183,2.705 0.036,0.465 0.122,0.905 0.122,1.392 -0.018,2.348 -0.035,5.176 -0.035,7.733 0,1.04 0.074,2.057 0.035,3.036 -0.014,0.222 -0.105,0.453 -0.122,0.665 -0.096,1.08 0.083,2.188 0.03,3.276 -0.013,0.178 -0.082,0.339 -0.092,0.517 -0.055,0.827 0.018,1.65 0.028,2.454 0.408,0.061 0.847,-0.027 1.304,-0.056 1.061,-0.083 2.202,0.112 3.097,0.026 0.052,-6.673 0.03,-13.772 0.03,-20.718 0,-0.987 0.119,-2.074 -0.122,-2.849 -0.03,-0.095 -0.126,-0.182 -0.182,-0.304 -0.183,-0.392 -0.331,-0.626 -0.665,-0.97 -0.201,-0.2 -0.431,-0.44 -0.609,-0.548 -0.07,-0.043 -0.197,-0.043 -0.27,-0.087 -0.235,-0.135 -0.448,-0.204 -0.853,-0.274 -0.226,-0.04 -0.435,-0.101 -0.603,-0.122 -0.689,-0.078 -1.463,0 -2.22,0 -1.734,0 -3.835,-0.047 -5.397,0.122 -0.331,0.035 -0.692,0.035 -1.001,0.087 -0.244,0.052 -0.465,0.196 -0.726,0.248 -0.522,0.104 -0.923,0.278 -1.397,0.487 -1.039,0.448 -2,1.214 -2.822,1.875 -0.596,0.657 -1.183,1.322 -1.666,2.096 -0.191,0.365 -0.456,0.779 -0.636,1.244 -0.09,0.222 -0.211,0.422 -0.272,0.67 -0.066,0.243 -0.184,0.461 -0.244,0.696 -0.053,0.2 -0.066,0.443 -0.122,0.661 -0.318,1.274 -0.214,3.132 -0.214,4.858 v 10.735 c 0,0.731 -0.029,1.67 0.03,2.067 0.019,0.039 0.048,0.073 0.092,0.09"
       style="fill:#171717;fill-opacity:1;fill-rule:evenodd;stroke:none;stroke-width:2.27356"
       id="path984" /><path
       d="m 325.1446,51.0411 c -1.453,-0.104 -3.52,0.37 -4.946,-0.092 -0.179,-0.056 -0.382,-0.064 -0.544,-0.117 -0.087,-0.035 -0.131,-0.113 -0.243,-0.187 -0.265,-0.156 -0.557,-0.244 -0.791,-0.422 -0.14,-0.109 -0.283,-0.273 -0.423,-0.426 -0.539,-0.582 -0.931,-1.232 -1.092,-2.245 -0.029,-0.187 -0.109,-0.386 -0.121,-0.543 -0.066,-0.718 0.087,-1.54 0.026,-2.401 -0.114,-1.649 -0.209,-3.558 -0.087,-5.215 0.012,-0.187 0.073,-0.357 0.087,-0.549 0.109,-1.296 -0.122,-2.661 -0.026,-3.91 0.009,-0.143 0.104,-0.308 0.121,-0.453 0.088,-0.751 -0.048,-1.53 0,-2.278 0.061,-1.014 0.117,-1.983 0.031,-2.879 -0.709,-0.031 -1.722,0.217 -2.701,0.122 -0.295,-0.027 -0.588,-0.009 -0.848,-0.031 -0.297,-0.022 -0.526,-0.266 -0.792,-0.091 -0.157,0.317 -0.087,0.696 -0.087,1.03 0,3.993 -0.004,8.2 0,12.258 0,1.522 -0.074,3.035 0,4.453 0.022,0.5 0.027,1.092 0.122,1.583 0.03,0.166 0.13,0.323 0.177,0.484 0.057,0.181 0.039,0.373 0.093,0.573 0.069,0.253 0.212,0.509 0.334,0.788 0.431,0.982 1.205,1.987 2.032,2.701 0.412,0.356 0.891,0.679 1.396,0.969 0.27,0.158 0.6,0.318 0.97,0.458 0.23,0.087 0.469,0.221 0.666,0.274 0.244,0.065 0.531,0.073 0.821,0.148 1.475,0.408 3.723,0.042 5.581,0.152 0.092,0.004 0.048,0.004 0.123,0 0.385,-0.03 0.063,-1.144 0.029,-1.483 -0.104,-0.996 0.243,-1.993 0.092,-2.671"
       style="fill:#171717;fill-opacity:1;fill-rule:evenodd;stroke:none;stroke-width:2.27356"
       id="path986" /><path
       d="m 77.1504,55.1388 c -0.117,-1.044 -0.257,-2.276 -0.092,-3.523 0.028,-0.197 0.179,-0.396 0.092,-0.545 -0.135,-0.229 -0.674,0 -0.909,0.035 -0.587,0.066 -1.362,-0.013 -1.94,0.026 -1.109,0.075 -2.623,0.097 -3.793,0 -1.139,-0.091 -2.323,0.114 -3.249,-0.026 -0.156,-0.03 -0.273,-0.147 -0.453,-0.217 -0.117,-0.043 -0.26,-0.018 -0.365,-0.057 -0.121,-0.052 -0.365,-0.217 -0.548,-0.339 -0.278,-0.182 -0.521,-0.421 -0.725,-0.727 -0.305,-0.456 -0.596,-1.165 -0.514,-1.939 0.017,-0.14 0.104,-0.27 0.152,-0.422 0.047,-0.161 0.043,-0.339 0.092,-0.461 0.217,-0.548 0.687,-0.944 1.121,-1.366 0.305,-0.178 0.57,-0.257 0.971,-0.387 0.135,-0.048 0.234,-0.17 0.365,-0.217 0.352,-0.136 0.744,-0.192 1.092,-0.331 0.121,-0.053 0.213,-0.17 0.33,-0.213 0.135,-0.052 0.291,-0.04 0.426,-0.096 0.361,-0.139 0.697,-0.331 1.062,-0.452 0.121,-0.039 0.27,-0.017 0.395,-0.056 0.131,-0.049 0.236,-0.196 0.361,-0.249 0.344,-0.134 0.735,-0.195 1.092,-0.335 0.109,-0.04 0.201,-0.138 0.305,-0.178 0.138,-0.052 0.322,-0.035 0.457,-0.091 0.221,-0.092 0.4,-0.313 0.666,-0.274 0.334,-0.322 0.908,-0.405 1.181,-0.788 0.971,-0.63 1.806,-1.679 2.307,-2.853 0.073,-0.165 0.182,-0.312 0.242,-0.487 0.062,-0.17 0.066,-0.387 0.123,-0.599 0.047,-0.175 0.148,-0.358 0.178,-0.523 0.148,-0.735 0.131,-1.81 -0.057,-2.574 -0.034,-0.14 -0.117,-0.262 -0.152,-0.393 -0.043,-0.164 -0.012,-0.339 -0.061,-0.487 -0.035,-0.113 -0.131,-0.187 -0.182,-0.304 -0.052,-0.113 -0.074,-0.252 -0.122,-0.365 -0.149,-0.34 -0.396,-0.632 -0.514,-0.971 -0.234,-0.251 -0.482,-0.487 -0.639,-0.817 -0.296,-0.278 -0.613,-0.509 -0.939,-0.757 -0.319,-0.244 -0.666,-0.439 -0.97,-0.696 -0.283,0.035 -0.448,-0.226 -0.7,-0.308 -0.117,-0.039 -0.27,-0.022 -0.392,-0.058 -0.135,-0.039 -0.26,-0.142 -0.395,-0.183 -0.531,-0.151 -1.18,-0.182 -1.789,-0.243 -0.779,-0.083 -1.665,0 -2.549,0 -2.426,0 -5.245,-0.047 -7.523,0.061 -0.106,0.2 0.051,0.365 0.095,0.579 0.104,0.548 0.117,1.261 0.086,1.874 -0.025,0.648 -0.142,1.232 -0.208,1.706 0.495,0.178 1.044,-0.088 1.484,-0.123 0.129,-0.007 0.265,0.035 0.395,0.027 0.183,-0.005 0.356,-0.078 0.544,-0.091 0.861,-0.062 1.844,0 2.792,0 1.196,0 2.345,0.016 3.336,0.091 0.266,0.022 0.54,-0.049 0.788,-0.027 0.125,0.01 0.27,0.105 0.456,0.153 0.443,0.096 0.718,0.109 1.092,0.33 0.326,0.192 0.782,0.683 1.031,1.061 0.148,0.231 0.144,0.358 0.275,0.671 0.051,0.122 0.151,0.2 0.181,0.3 0.188,0.679 -0.078,1.448 -0.273,1.883 -0.213,0.47 -0.787,0.961 -1.244,1.209 -0.218,0.122 -0.319,0.148 -0.61,0.244 -0.113,0.044 -0.187,0.134 -0.3,0.183 -0.122,0.052 -0.282,0.065 -0.426,0.121 -0.118,0.049 -0.244,0.139 -0.366,0.183 -0.117,0.039 -0.273,0.013 -0.39,0.061 -0.117,0.048 -0.188,0.165 -0.305,0.213 -0.122,0.044 -0.274,0.013 -0.396,0.061 -0.121,0.043 -0.217,0.169 -0.33,0.213 -0.375,0.143 -0.766,0.218 -1.123,0.361 -0.366,0.144 -0.7,0.344 -1.061,0.457 -0.117,0.034 -0.252,0.022 -0.365,0.056 -0.144,0.056 -0.235,0.201 -0.366,0.243 -0.123,0.049 -0.269,0.018 -0.395,0.061 -0.114,0.044 -0.204,0.17 -0.331,0.214 -0.109,0.039 -0.261,0.017 -0.365,0.061 -0.078,0.035 -0.144,0.134 -0.241,0.182 -0.307,0.149 -0.49,0.209 -0.791,0.395 -0.521,0.324 -0.943,0.741 -1.365,1.21 -0.318,0.362 -0.648,0.723 -0.818,1.035 -0.047,0.097 -0.034,0.227 -0.092,0.331 -0.047,0.092 -0.134,0.153 -0.182,0.244 -0.183,0.374 -0.23,0.647 -0.392,1.122 -0.051,0.148 -0.16,0.313 -0.182,0.457 -0.049,0.27 0.009,0.6 -0.03,0.879 -0.023,0.152 -0.105,0.273 -0.122,0.395 -0.039,0.265 0.083,0.535 0.122,0.848 0.034,0.309 -0.023,0.644 0.03,0.91 0.035,0.209 0.174,0.386 0.239,0.609 0.105,0.352 0.162,0.73 0.335,1.061 0.052,0.091 0.161,0.169 0.213,0.273 0.731,1.38 2.036,2.437 3.52,3.033 0.273,0.112 0.439,0.165 0.821,0.243 0.278,0.052 0.505,0.191 0.97,0.239 0.87,0.095 1.809,0 2.727,0 2.684,0 5.463,0.052 8.099,-0.056"
       style="fill:#171717;fill-opacity:1;fill-rule:evenodd;stroke:none;stroke-width:2.27356"
       id="path988" /><path
       d="m 243.7344,55.1651 c -0.17,-1.354 -0.088,-2.863 -0.031,-4.185 -0.875,0.139 -2.01,0.122 -3.219,0.213 -0.97,0.075 -2.379,0.009 -3.367,-0.061 -1.148,-0.082 -2.335,0.114 -3.209,-0.027 -0.156,-0.029 -0.3,-0.156 -0.492,-0.217 -0.118,-0.039 -0.266,-0.026 -0.361,-0.056 -0.491,-0.187 -1.083,-0.792 -1.397,-1.278 -0.139,-0.218 -0.287,-0.609 -0.36,-0.906 -0.156,-0.604 0.03,-1.212 0.209,-1.67 0.235,-0.604 0.735,-1.03 1.188,-1.457 0.234,0.022 0.369,-0.196 0.572,-0.274 0.123,-0.043 0.276,-0.017 0.393,-0.056 0.335,-0.122 0.642,-0.339 0.973,-0.461 0.149,-0.053 0.314,-0.036 0.453,-0.087 0.117,-0.048 0.201,-0.17 0.304,-0.214 0.127,-0.052 0.292,-0.039 0.422,-0.095 0.118,-0.039 0.227,-0.139 0.336,-0.178 0.112,-0.034 0.252,-0.022 0.365,-0.058 0.248,-0.09 0.457,-0.342 0.762,-0.273 0.321,-0.309 0.981,-0.387 1.482,-0.584 0.122,-0.042 0.213,-0.16 0.336,-0.207 0.113,-0.044 0.251,-0.018 0.361,-0.061 0.108,-0.039 0.2,-0.14 0.303,-0.183 0.135,-0.052 0.284,-0.039 0.396,-0.092 0.087,-0.039 0.126,-0.135 0.214,-0.178 0.238,-0.139 0.504,-0.239 0.757,-0.37 0.221,-0.239 0.477,-0.448 0.787,-0.604 0.466,-0.557 1.088,-1.149 1.458,-1.849 0.047,-0.091 0.068,-0.235 0.121,-0.335 0.047,-0.087 0.144,-0.156 0.183,-0.243 0.047,-0.109 0.034,-0.27 0.09,-0.392 0.044,-0.1 0.149,-0.183 0.183,-0.269 0.061,-0.191 0.078,-0.474 0.148,-0.735 0.173,-0.632 0.261,-1.84 0.092,-2.636 -0.036,-0.173 -0.144,-0.322 -0.179,-0.483 -0.044,-0.174 -0.017,-0.4 -0.061,-0.547 -0.034,-0.101 -0.139,-0.197 -0.183,-0.306 -0.099,-0.244 -0.16,-0.413 -0.273,-0.634 -0.562,-1.119 -1.457,-2.128 -2.549,-2.763 -0.531,-0.309 -0.939,-0.46 -1.549,-0.665 -0.147,-0.053 -0.287,-0.153 -0.422,-0.187 -0.387,-0.083 -0.852,-0.061 -1.274,-0.114 -1.509,-0.212 -3.71,-0.095 -5.458,-0.095 h -5.006 c -0.123,0.318 0.061,0.679 0.121,1.061 0.086,0.57 0.074,1.297 0.029,1.879 -0.039,0.5 -0.234,0.913 -0.209,1.31 0.463,0.134 1.049,-0.127 1.485,-0.153 0.138,-0.008 0.283,0.035 0.422,0.026 0.138,-0.004 0.283,-0.074 0.425,-0.09 0.819,-0.079 1.866,0 2.854,0 0.983,0 2.002,-0.07 2.819,0 0.161,0.016 0.3,0.078 0.456,0.09 0.319,0.032 0.645,-0.06 0.94,-0.026 0.135,0.014 0.256,0.105 0.426,0.153 0.435,0.109 0.691,0.117 1.061,0.33 0.126,0.074 0.344,0.257 0.514,0.427 0.257,0.256 0.382,0.412 0.577,0.726 0.263,0.426 0.531,1.091 0.424,1.879 -0.075,0.552 -0.527,1.357 -0.879,1.666 -0.231,0.209 -0.609,0.465 -0.879,0.582 -0.135,0.053 -0.309,0.031 -0.457,0.088 -0.117,0.048 -0.191,0.173 -0.305,0.212 -0.117,0.048 -0.265,0.014 -0.39,0.062 -0.114,0.044 -0.192,0.169 -0.305,0.212 -0.121,0.049 -0.279,0.018 -0.392,0.062 -0.23,0.078 -0.395,0.313 -0.76,0.274 -0.393,0.283 -0.918,0.392 -1.397,0.573 -0.121,0.049 -0.213,0.131 -0.335,0.184 -0.122,0.052 -0.27,0.044 -0.391,0.091 -0.135,0.048 -0.235,0.17 -0.366,0.212 -0.244,0.087 -0.544,0.044 -0.696,0.27 -0.352,-0.056 -0.495,0.188 -0.726,0.274 -0.13,0.049 -0.283,0.018 -0.396,0.061 -0.184,0.074 -0.4,0.213 -0.578,0.305 -0.791,0.414 -1.723,1.193 -2.275,2.001 -0.061,0.091 -0.086,0.213 -0.148,0.3 -0.061,0.087 -0.17,0.134 -0.214,0.217 -0.047,0.083 -0.043,0.214 -0.09,0.301 -0.052,0.1 -0.109,0.156 -0.153,0.243 -0.078,0.166 -0.218,0.339 -0.271,0.483 -0.05,0.134 -0.042,0.309 -0.094,0.461 -0.218,0.674 -0.436,1.801 -0.335,2.879 0.095,0.953 0.4,1.792 0.7,2.518 0.418,0.679 0.852,1.324 1.427,1.854 0.269,0.244 0.556,0.547 0.879,0.751 0.082,0.053 0.204,0.058 0.299,0.122 0.083,0.048 0.136,0.145 0.218,0.184 0.091,0.052 0.196,0.065 0.3,0.122 0.271,0.152 0.614,0.238 0.94,0.426 0.492,0.025 0.957,0.256 1.426,0.3 0.862,0.082 1.801,0 2.733,0 2.627,0 5.492,0.03 8.068,-0.03"
       style="fill:#171717;fill-opacity:1;fill-rule:evenodd;stroke:none;stroke-width:2.27356"
       id="path990" /><path
       d="m 264.9551,134.2735 c 2.754,-2.479 3.314,-6.341 1.252,-8.634 -2.061,-2.288 -5.963,-2.135 -8.721,0.341 -2.752,2.478 -3.314,6.34 -1.252,8.628 2.062,2.297 5.963,2.144 8.721,-0.335"
       style="fill:#171717;fill-opacity:1;fill-rule:nonzero;stroke:none;stroke-width:2.27356"
       id="path992" /><path
       d="m 386.7549,149.3526 c 0,-1.628 -1.317,-2.952 -2.944,-2.952 -1.624,0 -2.948,1.324 -2.948,2.952 0,1.639 1.324,2.959 2.948,2.959 1.627,0 2.944,-1.32 2.944,-2.959"
       style="fill:#171717;fill-opacity:1;fill-rule:nonzero;stroke:none;stroke-width:2.27356"
       id="path994" /><path
       d="m 386.7549,136.3009 c 0,-1.63 -1.317,-2.96 -2.944,-2.96 -1.624,0 -2.948,1.33 -2.948,2.96 0,1.628 1.324,2.957 2.948,2.957 1.627,0 2.944,-1.329 2.944,-2.957"
       style="fill:#171717;fill-opacity:1;fill-rule:nonzero;stroke:none;stroke-width:2.27356"
       id="path996" /><path
       d="m 386.7549,123.2408 c 0,-1.631 -1.317,-2.954 -2.944,-2.954 -1.624,0 -2.948,1.323 -2.948,2.954 0,1.634 1.324,2.957 2.948,2.957 1.627,0 2.944,-1.323 2.944,-2.957"
       style="fill:#171717;fill-opacity:1;fill-rule:nonzero;stroke:none;stroke-width:2.27356"
       id="path998" /><path
       d="m 386.7549,110.1857 c 0,-1.631 -1.317,-2.957 -2.944,-2.957 -1.624,0 -2.948,1.326 -2.948,2.957 0,1.633 1.324,2.957 2.948,2.957 1.627,0 2.944,-1.324 2.944,-2.957"
       style="fill:#171717;fill-opacity:1;fill-rule:nonzero;stroke:none;stroke-width:2.27356"
       id="path1000" /><path
       d="m 386.7549,97.1251 c 0,-1.627 -1.317,-2.954 -2.944,-2.954 -1.624,0 -2.948,1.327 -2.948,2.954 0,1.634 1.324,2.96 2.948,2.96 1.627,0 2.944,-1.326 2.944,-2.96"
       style="fill:#171717;fill-opacity:1;fill-rule:nonzero;stroke:none;stroke-width:2.27356"
       id="path1002" /><path
       d="m 386.7549,84.0773 c 0,-1.636 -1.317,-2.962 -2.944,-2.962 -1.624,0 -2.948,1.326 -2.948,2.962 0,1.627 1.324,2.951 2.948,2.951 1.627,0 2.944,-1.324 2.944,-2.951"
       style="fill:#171717;fill-opacity:1;fill-rule:nonzero;stroke:none;stroke-width:2.27356"
       id="path1004" /><path
       d="m 386.7549,71.0143 c 0,-1.63 -1.317,-2.954 -2.944,-2.954 -1.624,0 -2.948,1.324 -2.948,2.954 0,1.634 1.324,2.954 2.948,2.954 1.627,0 2.944,-1.32 2.944,-2.954"
       style="fill:#171717;fill-opacity:1;fill-rule:nonzero;stroke:none;stroke-width:2.27356"
       id="path1006" /><path
       d="m 386.7549,57.9532 c 0,-1.628 -1.317,-2.951 -2.944,-2.951 -1.624,0 -2.948,1.323 -2.948,2.951 0,1.639 1.324,2.959 2.948,2.959 1.627,0 2.944,-1.32 2.944,-2.959"
       style="fill:#171717;fill-opacity:1;fill-rule:nonzero;stroke:none;stroke-width:2.27356"
       id="path1008" /><path
       d="m 386.7549,44.902 c 0,-1.63 -1.317,-2.96 -2.944,-2.96 -1.624,0 -2.948,1.33 -2.948,2.96 0,1.627 1.324,2.957 2.948,2.957 1.627,0 2.944,-1.33 2.944,-2.957"
       style="fill:#171717;fill-opacity:1;fill-rule:nonzero;stroke:none;stroke-width:2.27356"
       id="path1010" /><path
       d="m 386.7549,31.8419 c 0,-1.631 -1.317,-2.954 -2.944,-2.954 -1.624,0 -2.948,1.323 -2.948,2.954 0,1.634 1.324,2.957 2.948,2.957 1.627,0 2.944,-1.323 2.944,-2.957"
       style="fill:#171717;fill-opacity:1;fill-rule:nonzero;stroke:none;stroke-width:2.27356"
       id="path1012" /></g></g><metadata
   id="metadata61"><rdf:RDF><cc:Work
       rdf:about=""><dc:format>image/svg+xml</dc:format><dc:type
         rdf:resource="http://purl.org/dc/dcmitype/StillImage" /><dc:title></dc:title></cc:Work></rdf:RDF></metadata><defs
   id="defs59"><clipPath
     clipPathUnits="userSpaceOnUse"
     id="clipPath904"><path
       d="M 0,0 H 624.873 V 185.279 H 0 Z"
       id="path902" /></clipPath><clipPath
     clipPathUnits="userSpaceOnUse"
     id="clipPath910"><path
       d="M 25,28 H 600 V 161 H 25 Z"
       id="path908" /></clipPath><clipPath
     clipPathUnits="userSpaceOnUse"
     id="clipPath914"><path
       d="M 0,0 H 624.873 V 185.279 H 0 Z"
       id="path912" /></clipPath><clipPath
     clipPathUnits="userSpaceOnUse"
     id="clipPath918"><path
       d="M 0,0 H 624.873 V 185.279 H 0 Z"
       id="path916" /></clipPath><clipPath
     clipPathUnits="userSpaceOnUse"
     id="clipPath922"><path
       d="m 464,29 h 25 v 35 h -25 z"
       id="path920" /></clipPath><clipPath
     clipPathUnits="userSpaceOnUse"
     id="clipPath926"><path
       d="m 464.582,29.5992 h 23.873 V 63.232 h -23.873 z"
       id="path924" /></clipPath><clipPath
     clipPathUnits="userSpaceOnUse"
     id="clipPath930"><path
       d="M 0,0 H 624.873 V 185.279 H 0 Z"
       id="path928" /></clipPath><clipPath
     clipPathUnits="userSpaceOnUse"
     id="clipPath934"><path
       d="m 493,29 h 25 v 35 h -25 z"
       id="path932" /></clipPath><clipPath
     clipPathUnits="userSpaceOnUse"
     id="clipPath938"><path
       d="m 493.809,29.5992 h 23.873 V 63.232 h -23.873 z"
       id="path936" /></clipPath><clipPath
     clipPathUnits="userSpaceOnUse"
     id="clipPath942"><path
       d="M 0,0 H 624.873 V 185.279 H 0 Z"
       id="path940" /></clipPath><clipPath
     clipPathUnits="userSpaceOnUse"
     id="clipPath946"><path
       d="m 522,29 h 28 v 34 h -28 z"
       id="path944" /></clipPath><clipPath
     clipPathUnits="userSpaceOnUse"
     id="clipPath950"><path
       d="m 522.746,29.1378 h 27.095 v 33.6328 h -27.095 z"
       id="path948" /></clipPath></defs><sodipodi:namedview
   pagecolor="#ffffff"
   bordercolor="#666666"
   borderopacity="1"
   objecttolerance="10"
   gridtolerance="10"
   guidetolerance="10"
   inkscape:pageopacity="0"
   inkscape:pageshadow="2"
   inkscape:window-width="1920"
   inkscape:window-height="1025"
   id="namedview57"
   showgrid="false"
   showguides="true"
   inkscape:guide-bbox="true"
   inkscape:zoom="2.1458442"
   inkscape:cx="186.69567"
   inkscape:cy="4.6185224"
   inkscape:window-x="0"
   inkscape:window-y="0"
   inkscape:window-maximized="1"
   inkscape:current-layer="Calque_1"
   fit-margin-top="0"
   fit-margin-left="0"
   fit-margin-right="0"
   fit-margin-bottom="0"><sodipodi:guide
     position="164.01901,72.850091"
     orientation="0,-1"
     id="guide1801" /><sodipodi:guide
     position="150.37051,0.25592599"
     orientation="0,-1"
     id="guide1803" /></sodipodi:namedview>
<style
   type="text/css"
   id="style2">
	.st0{fill:#263068;}
	.st1{fill:#E6332A;}
</style>
<g
   id="g54"
   transform="matrix(0.95237885,0,0,0.95237885,230.72098,-0.38095154)"
   style="stroke-width:1.05">
	<path
   class="st0"
   d="m 22.2,24.2 h 2.6 v -5.6 c 0,-0.7 -0.6,-1.3 -1.3,-1.3 -0.7,0 -1.3,0.6 -1.3,1.3 z"
   id="path4"
   style="stroke-width:1.05" />
	<path
   class="st0"
   d="m 16.8,24.2 h 2.6 v -5.6 c 0,-0.7 -0.6,-1.3 -1.3,-1.3 -0.7,0 -1.3,0.6 -1.3,1.3 z"
   id="path6"
   style="stroke-width:1.05" />
	<path
   class="st0"
   d="m 27.6,24.2 h 2.6 v -5.6 c 0,-0.7 -0.6,-1.3 -1.3,-1.3 -0.7,0 -1.3,0.6 -1.3,1.3 z"
   id="path8"
   style="stroke-width:1.05" />
	<path
   class="st0"
   d="m 24.1,3.6 c 1.7,0.3 2.3,1.8 2.3,2.8 V 8.6 H 28 v 1.2 c 4.1,1.9 7,6.2 7,10.6 0,0 0,0.1 0,0.1 v 3.8 h 9.4 V 20.5 C 44.2,8.1 35.4,0.6 23.8,0.4 Z"
   id="path10"
   style="stroke-width:1.05" />
	<path
   class="st0"
   d="m 22.4,6.4 v 2.2 h 2.3 V 6.4 C 24.7,5.8 24.2,5.3 23.6,5.3 22.9,5.2 22.4,5.8 22.4,6.4"
   id="path12"
   style="stroke-width:1.05" />
	<path
   class="st0"
   d="M 25.2,30.3 C 15.5,27.8 11.8,25.7 11.8,19.5 c 0,-4.4 3,-8.2 7.1,-9.9 v -1 h 1.6 V 6.5 c 0,-1.1 0.7,-2.6 2.4,-2.8 l 0.3,-3.2 c -11.7,0 -21.6,8.1 -21.1,19 0.5,12.2 14,15.7 21.2,17.2 5.7,1.2 19.4,4.4 22.8,14.1 -0.1,0 1.2,-16 -20.9,-20.5"
   id="path14"
   style="stroke-width:1.05" />
	<path
   class="st0"
   d="m 22,47.3 c 9.8,3 12.3,6.6 12.3,11.8 0,7.9 -6.1,11.1 -13.8,11.1 -7.3,0 -13.6,-3.4 -17.8,-7.8 0,0 -1.6,3.2 -1.6,3.2 3.1,5.8 11.8,11.1 21.4,11.1 v 0 c 0,0 0,0 0,0 v 0 C 35,76.8 45.6,71 45.6,59.3 45.6,46.8 31.9,41.8 24.3,40.2 18.3,38.9 3.3,34.9 0.6,26.5 c 0,0 -3,14.6 21.4,20.8"
   id="path16"
   style="stroke-width:1.05" />
	<path
   class="st1"
   d="m 59.7,31.3 c 0,0 1.7,1.6 3.9,1.6 1.2,0 2.2,-0.6 2.2,-1.8 0,-2.7 -7.3,-2.2 -7.3,-6.8 0,-2.5 2.2,-4.3 5.2,-4.3 3,0 4.6,1.6 4.6,1.6 l -1.2,2.2 c 0,0 -1.5,-1.3 -3.4,-1.3 -1.3,0 -2.3,0.7 -2.3,1.8 0,2.6 7.3,2 7.3,6.7 0,2.4 -1.9,4.3 -5.1,4.3 -3.4,0 -5.3,-2 -5.3,-2 z"
   id="path18"
   style="stroke-width:1.05" />
	<path
   class="st1"
   d="m 80.5,32.9 c 2.8,0 5.1,-2.3 5.1,-5.3 0,-2.9 -2.3,-5.1 -5.1,-5.1 -2.8,0 -5.1,2.2 -5.1,5.1 0,3.1 2.2,5.3 5.1,5.3 m 0,-12.8 c 4.5,0 8,3.3 8,7.6 0,4.4 -3.4,7.8 -8,7.8 -4.5,0 -8,-3.4 -8,-7.8 0,-4.3 3.4,-7.6 8,-7.6"
   id="path20"
   style="stroke-width:1.05" />
	<path
   class="st1"
   d="m 98.3,27.3 c 1.5,0 2.4,-0.9 2.4,-2.3 0,-1.4 -0.6,-2.3 -2.8,-2.3 h -2.1 v 4.6 z m -5.3,-7 h 5 c 1.7,0 2.4,0.1 3.1,0.4 1.5,0.7 2.5,2.1 2.5,4.1 0,1.8 -1,3.4 -2.6,4.1 v 0 c 0,0 0.2,0.2 0.5,0.7 l 3.2,5.5 h -3.1 l -3.1,-5.5 h -2.7 v 5.5 H 93 Z"
   id="path22"
   style="stroke-width:1.05" />
	<path
   class="st1"
   d="m 114.5,32.8 c 1.4,0 2.2,-0.9 2.2,-2.2 0,-1.2 -0.8,-2.1 -2.2,-2.1 h -3 v 4.3 z m -0.3,-6.4 c 1.2,0 1.9,-0.8 1.9,-1.9 0,-1.1 -0.7,-1.8 -2,-1.8 h -2.7 v 3.7 z m -5.5,-6.1 h 5.5 c 2.8,0 4.8,1.4 4.8,3.8 0,1.4 -0.7,2.6 -1.9,3.2 v 0 c 1.7,0.5 2.5,2 2.5,3.5 0,3 -2.5,4.3 -5.3,4.3 h -5.6 z"
   id="path24"
   style="stroke-width:1.05" />
	<path
   class="st1"
   d="m 131.2,32.9 c 2.8,0 5.1,-2.3 5.1,-5.3 0,-2.9 -2.3,-5.1 -5.1,-5.1 -2.8,0 -5.1,2.2 -5.1,5.1 0,3.1 2.3,5.3 5.1,5.3 m 0,-12.8 c 4.5,0 8,3.3 8,7.6 0,4.4 -3.4,7.8 -8,7.8 -4.5,0 -8,-3.4 -8,-7.8 0,-4.3 3.5,-7.6 8,-7.6"
   id="path26"
   style="stroke-width:1.05" />
	<path
   class="st1"
   d="m 144,20.3 h 2.8 l 5.9,8.6 c 0.6,0.9 1.3,2.3 1.3,2.3 v 0 c 0,0 -0.2,-1.4 -0.2,-2.3 v -8.6 h 2.8 v 14.8 h -2.8 l -5.9,-8.5 c -0.6,-0.9 -1.3,-2.3 -1.3,-2.3 v 0 c 0,0 0.2,1.4 0.2,2.3 v 8.5 H 144 Z"
   id="path28"
   style="stroke-width:1.05" />
	<path
   class="st1"
   d="m 162.2,20.3 h 2.8 l 5.9,8.6 c 0.6,0.9 1.3,2.3 1.3,2.3 v 0 c 0,0 -0.2,-1.4 -0.2,-2.3 v -8.6 h 2.8 V 35.1 H 172 l -5.9,-8.5 c -0.6,-0.9 -1.3,-2.3 -1.3,-2.3 v 0 c 0,0 0.2,1.4 0.2,2.3 v 8.5 h -2.8 z"
   id="path30"
   style="stroke-width:1.05" />
	<polygon
   class="st1"
   points="180.4,35.2 190,35.2 190,32.8 183.2,32.8 183.2,28.8 188.4,28.8 188.4,26.5 183.2,26.5 183.2,22.6 189.7,22.6 189.7,20.3 180.4,20.3 "
   id="polygon32"
   style="stroke-width:1.05" />
	<path
   class="st1"
   d="m 58.4,41.7 h 2.8 v 9.6 c 0,2 1.4,3.1 3.5,3.1 2.1,0 3.5,-1.1 3.5,-3.2 V 41.6 H 71 v 9.6 c 0,3.4 -2.5,5.6 -6.3,5.6 -3.8,0 -6.3,-2.3 -6.3,-5.6 z"
   id="path34"
   style="stroke-width:1.05" />
	<path
   class="st1"
   d="m 75.7,41.8 h 2.8 l 5.9,8.6 c 0.6,0.9 1.3,2.3 1.3,2.3 v 0 c 0,0 -0.2,-1.4 -0.2,-2.3 v -8.6 h 2.8 V 56.6 H 85.5 L 79.6,48.1 C 79,47.2 78.3,45.8 78.3,45.8 v 0 c 0,0 0.2,1.4 0.2,2.3 v 8.5 h -2.8 z"
   id="path36"
   style="stroke-width:1.05" />
	<rect
   x="93.300003"
   y="41.799999"
   class="st1"
   width="2.8"
   height="14.8"
   id="rect38"
   style="stroke-width:1.05" />
	<path
   class="st1"
   d="m 99.2,41.8 h 3 l 3.4,9.7 c 0.3,0.9 0.6,2.2 0.6,2.2 h 0.1 c 0,0 0.3,-1.3 0.6,-2.2 l 3.4,-9.7 h 3 l -5.6,14.8 h -2.8 z"
   id="path40"
   style="stroke-width:1.05" />
	<polygon
   class="st1"
   points="125.5,41.8 125.5,44.1 119.1,44.1 119.1,48 124.3,48 124.3,50.3 119.1,50.3 119.1,54.3 125.9,54.3 125.9,56.7 116.3,56.7 116.3,41.8 "
   id="polygon42"
   style="stroke-width:1.05" />
	<path
   class="st1"
   d="m 135.2,48.8 c 1.5,0 2.4,-0.9 2.4,-2.3 0,-1.4 -0.6,-2.3 -2.8,-2.3 h -2.1 v 4.6 z m -5.3,-7 h 5 c 1.7,0 2.4,0.1 3.1,0.4 1.5,0.7 2.5,2.1 2.5,4.1 0,1.8 -1,3.4 -2.6,4.1 v 0 c 0,0 0.2,0.2 0.5,0.7 l 3.2,5.5 h -3.1 l -3.1,-5.5 h -2.7 v 5.5 h -2.8 z"
   id="path44"
   style="stroke-width:1.05" />
	<path
   class="st1"
   d="m 145.6,52.9 c 0,0 1.7,1.6 3.9,1.6 1.2,0 2.2,-0.6 2.2,-1.8 0,-2.7 -7.3,-2.2 -7.3,-6.8 0,-2.5 2.2,-4.3 5.2,-4.3 3,0 4.6,1.6 4.6,1.6 l -1.2,2.2 c 0,0 -1.5,-1.3 -3.4,-1.3 -1.3,0 -2.3,0.7 -2.3,1.8 0,2.6 7.3,2 7.3,6.7 0,2.4 -1.9,4.3 -5.1,4.3 -3.4,0 -5.3,-2 -5.3,-2 z"
   id="path46"
   style="stroke-width:1.05" />
	<rect
   x="158.39999"
   y="41.799999"
   class="st1"
   width="2.8"
   height="14.8"
   id="rect48"
   style="stroke-width:1.05" />
	<polygon
   class="st1"
   points="172.2,44.1 172.2,56.7 169.4,56.7 169.4,44.1 164.4,44.1 164.4,41.8 177.3,41.8 177.3,44.1 "
   id="polygon50"
   style="stroke-width:1.05" />
	<path
   class="st1"
   d="m 180.5,41.8 v 14.8 h 9.6 v -2.3 h -6.8 v -4 h 5.2 V 48 h -5.2 v -3.9 h 6.4 v -2.3 z m 5.3,-3.8 -1.7,2.8 h 2.2 l 2.3,-2.8 z"
   id="path52"
   style="stroke-width:1.05" />
</g>
<g
   id="g896"
   transform="matrix(1.3333333,0,0,-1.3333333,-427.25325,-67.879459)" /></svg>
